<?xml version="1.0" encoding="utf-8"?>
<!-- Generator: Adobe Illustrator 15.0.0, SVG Export Plug-In . SVG Version: 6.00 Build 0)  -->
<!DOCTYPE svg PUBLIC "-//W3C//DTD SVG 1.1//EN" "http://www.w3.org/Graphics/SVG/1.1/DTD/svg11.dtd">
<svg version="1.1" id="图层_1" xmlns="http://www.w3.org/2000/svg" xmlns:xlink="http://www.w3.org/1999/xlink" x="0px" y="0px"
	 width="17.25px" height="19.373px" viewBox="0 0 17.25 19.373" enable-background="new 0 0 17.25 19.373" xml:space="preserve">
<g>
	<path fill="#55616F" d="M16.182,9.855c-0.421,0-0.763,0.342-0.763,0.763c0,3.732-3.036,6.769-6.769,6.769s-6.769-3.036-6.769-6.769
		c0-3.533,2.722-6.438,6.178-6.738L7.361,4.36C7.013,4.599,6.926,5.074,7.166,5.421c0.147,0.215,0.386,0.331,0.628,0.331
		c0.149,0,0.3-0.043,0.432-0.134l2.765-1.902c0.015-0.01,0.026-0.022,0.04-0.033c0.017-0.013,0.032-0.026,0.048-0.041
		c0.032-0.03,0.062-0.063,0.088-0.099c0.006-0.008,0.014-0.015,0.021-0.022c0.002-0.003,0.003-0.007,0.005-0.011
		c0.018-0.025,0.031-0.054,0.045-0.082c0.01-0.018,0.02-0.035,0.027-0.052c0.01-0.025,0.016-0.05,0.023-0.075
		c0.006-0.022,0.015-0.045,0.019-0.067c0.005-0.024,0.006-0.047,0.008-0.072c0.003-0.024,0.006-0.049,0.006-0.074
		c0-0.025-0.003-0.05-0.006-0.074c-0.002-0.023-0.003-0.048-0.008-0.071c-0.004-0.023-0.013-0.045-0.019-0.068
		c-0.008-0.024-0.014-0.05-0.023-0.074c-0.008-0.019-0.019-0.035-0.027-0.054c-0.014-0.028-0.027-0.055-0.045-0.081
		c-0.002-0.003-0.003-0.006-0.005-0.01c-0.011-0.015-0.023-0.026-0.034-0.04c-0.019-0.022-0.035-0.045-0.056-0.065
		c-0.021-0.021-0.044-0.04-0.067-0.057c-0.014-0.01-0.024-0.023-0.039-0.033L8.225,0.556c-0.347-0.239-0.821-0.151-1.06,0.196
		C6.926,1.099,7.013,1.574,7.361,1.812l0.77,0.529C3.798,2.612,0.357,6.22,0.357,10.618c0,4.573,3.721,8.294,8.294,8.294
		s8.294-3.721,8.294-8.294C16.945,10.197,16.603,9.855,16.182,9.855z"/>
</g>
</svg>
