<?xml version="1.0" encoding="utf-8"?>
<!-- Generator: Adobe Illustrator 15.0.0, SVG Export Plug-In . SVG Version: 6.00 Build 0)  -->
<!DOCTYPE svg PUBLIC "-//W3C//DTD SVG 1.1//EN" "http://www.w3.org/Graphics/SVG/1.1/DTD/svg11.dtd">
<svg version="1.1" id="图层_1" xmlns="http://www.w3.org/2000/svg" xmlns:xlink="http://www.w3.org/1999/xlink" x="0px" y="0px"
	 width="20.5px" height="17.508px" viewBox="0 0 20.5 17.508" enable-background="new 0 0 20.5 17.508" xml:space="preserve">
<g id="XMLID_9_">
	<g>
		<path d="M0.933,13.56c-0.27-1.14,0.69-1.83,1.27-2.18c1.79-1.15,3.58-2.31,5.37-3.46c0.52-0.33,2.52-1.12,2.09-2.08
			c-0.24-0.51-0.91-0.71-1.22-1.18c-0.69-1.06-0.23-2.8,0.56-3.399c0.3-0.22,0.66-0.271,1.01-0.45c1.38-0.02,1.98,0.57,2.42,1.48
			c0.2,0.4,0.26,1.24-0.12,1.48c-0.82,0.53-0.74-0.73-0.98-1.13c-0.13-0.22-0.35-0.35-0.59-0.47c-0.17-0.08-0.51-0.13-0.73-0.04
			c-0.19,0.07-0.34,0.23-0.47,0.37c-1.18,1.37,0.84,1.89,1.15,2.65c0.13,0.32,0.01,1.2,0.17,1.46c0.15,0.25,1.45,0.93,1.78,1.13
			c1.69,0.99,3.36,2.14,4.98,3.24c0.76,0.51,2.12,0.94,1.88,2.41c-0.16,0.92-0.62,1.57-1.53,1.72c-0.52,0-1.03,0-1.55,0
			c-1.16,0-2.68,0.1-1.71-1.22c1.09-0.05,3.35,0.3,3.54-0.59c0.12-0.53-0.51-0.771-0.8-0.94c-0.98-0.59-1.95-1.22-2.93-1.85
			c-1.4-0.9-2.8-1.8-4.2-2.7c-0.29-0.09-1.66,0.95-1.93,1.1c-1.6,1.021-3.21,2.03-4.81,3.05c-0.43,0.3-1.34,0.57-1.45,1.15
			c-0.21,1.05,1.6,0.75,2.48,0.75c1.97,0,3.93,0,5.9,0c0.74,0,1.92-0.14,2.39,0.17c0.05,0.271,0.17,0.66-0.02,0.89
			c-0.28,0.34-2.55,0.19-3.24,0.19c-1.72,0-3.45,0-5.17,0c-0.87,0-1.96,0.09-2.58-0.17C1.403,14.74,1.063,14.12,0.933,13.56z"/>
	</g>
	<g>
	</g>
</g>
</svg>
