<?xml version="1.0" encoding="utf-8"?>
<!-- Generator: Adobe Illustrator 15.0.0, SVG Export Plug-In . SVG Version: 6.00 Build 0)  -->
<!DOCTYPE svg PUBLIC "-//W3C//DTD SVG 1.1//EN" "http://www.w3.org/Graphics/SVG/1.1/DTD/svg11.dtd">
<svg version="1.1" id="图层_1" xmlns="http://www.w3.org/2000/svg" xmlns:xlink="http://www.w3.org/1999/xlink" x="0px" y="0px"
	 width="15.29px" height="20.61px" viewBox="0 0 15.29 20.61" enable-background="new 0 0 15.29 20.61" xml:space="preserve">
<g>
	<g>
		<path fill="#55616F" d="M13.808,2.622H11.38V1.444c0-0.649-0.527-1.177-1.177-1.177H5.202c-0.649,0-1.178,0.528-1.178,1.177v1.178
			H1.597c-0.649,0-1.177,0.527-1.177,1.176v2.427c0,0.649,0.527,1.178,1.177,1.178h0.421C2.01,7.455,2.001,7.507,2.001,7.562V18.89
			c0,0.649,0.527,1.177,1.177,1.177h9.048c0.649,0,1.177-0.528,1.177-1.177V7.562c0-0.055-0.009-0.106-0.016-0.158h0.421
			c0.649,0,1.177-0.528,1.177-1.178V3.798C14.985,3.149,14.458,2.622,13.808,2.622z M5.202,1.444h5.002v1.178H5.202V1.444z
			 M3.178,18.89V7.562h9.048l0.001,11.328H3.178z M1.597,6.226V3.798h3.016h6.18h3.016v2.427H1.597z"/>
	</g>
	<g>
		<path fill="#55616F" d="M4.871,8.175c-0.325,0-0.588,0.264-0.588,0.589v8.925c0,0.325,0.263,0.588,0.588,0.588
			c0.324,0,0.588-0.264,0.588-0.588V8.764C5.458,8.438,5.195,8.175,4.871,8.175z"/>
	</g>
	<g>
		<path fill="#55616F" d="M7.703,8.175c-0.325,0-0.588,0.264-0.588,0.589v8.925c0,0.325,0.263,0.588,0.588,0.588
			c0.324,0,0.588-0.264,0.588-0.588V8.764C8.291,8.438,8.027,8.175,7.703,8.175z"/>
	</g>
	<g>
		<path fill="#55616F" d="M10.535,8.175c-0.325,0-0.589,0.264-0.589,0.589v8.925c0,0.325,0.264,0.588,0.589,0.588
			s0.588-0.264,0.588-0.588V8.764C11.123,8.438,10.86,8.175,10.535,8.175z"/>
	</g>
</g>
</svg>
