<?xml version="1.0" encoding="utf-8"?>
<!-- Generator: Adobe Illustrator 15.0.0, SVG Export Plug-In . SVG Version: 6.00 Build 0)  -->
<!DOCTYPE svg PUBLIC "-//W3C//DTD SVG 1.1//EN" "http://www.w3.org/Graphics/SVG/1.1/DTD/svg11.dtd">
<svg version="1.1" id="图层_1" xmlns="http://www.w3.org/2000/svg" xmlns:xlink="http://www.w3.org/1999/xlink" x="0px" y="0px"
	 width="22.75px" height="9.834px" viewBox="0 0 22.75 9.834" enable-background="new 0 0 22.75 9.834" xml:space="preserve">
<g id="XMLID_1_">
	<g>
		<path d="M9.923,9.481c-3.181-2.98-6.371-5.96-9.551-8.94c0-0.02,0-0.04,0-0.06c1.02,0,2.05,0,3.07,0
			c2.61,2.379,5.23,4.77,7.85,7.16c2.681-2.39,5.36-4.78,8.051-7.16c1.02,0,2.05,0,3.069,0c0,0.02,0,0.04,0,0.06
			c-0.14,0.16-0.27,0.32-0.41,0.48c-3.07,2.82-6.14,5.64-9.21,8.46C11.832,9.481,10.882,9.481,9.923,9.481z"/>
	</g>
	<g>
	</g>
</g>
</svg>
