<?xml version="1.0" encoding="utf-8"?>
<!-- Generator: Adobe Illustrator 15.0.0, SVG Export Plug-In . SVG Version: 6.00 Build 0)  -->
<!DOCTYPE svg PUBLIC "-//W3C//DTD SVG 1.1//EN" "http://www.w3.org/Graphics/SVG/1.1/DTD/svg11.dtd">
<svg version="1.1" id="图层_1" xmlns="http://www.w3.org/2000/svg" xmlns:xlink="http://www.w3.org/1999/xlink" x="0px" y="0px"
	 width="23px" height="10px" viewBox="0 0 23 10" enable-background="new 0 0 23 10" xml:space="preserve">
<g id="XMLID_1_">
	<g>
		<path fill="#B5B5B5" d="M0.453,0.544c0-0.02,0-0.04,0-0.06c1.02,0,2.05,0,3.07,0c2.609,2.38,5.229,4.77,7.85,7.16
			c2.68-2.39,5.36-4.78,8.05-7.16c1.021,0,2.05,0,3.07,0c0,0.02,0,0.04,0,0.06c-0.141,0.16-0.271,0.32-0.41,0.48
			c-3.069,2.82-6.14,5.64-9.21,8.46c-0.96,0-1.909,0-2.87,0C6.823,6.504,3.633,3.524,0.453,0.544z"/>
	</g>
	<g>
	</g>
</g>
</svg>
