<?xml version="1.0" encoding="utf-8"?>
<!-- Generator: Adobe Illustrator 15.0.0, SVG Export Plug-In . SVG Version: 6.00 Build 0)  -->
<!DOCTYPE svg PUBLIC "-//W3C//DTD SVG 1.1//EN" "http://www.w3.org/Graphics/SVG/1.1/DTD/svg11.dtd">
<svg version="1.1" id="图层_1" xmlns="http://www.w3.org/2000/svg" xmlns:xlink="http://www.w3.org/1999/xlink" x="0px" y="0px"
	 width="19.125px" height="18.812px" viewBox="0 0 19.125 18.812" enable-background="new 0 0 19.125 18.812" xml:space="preserve">
<g>
	<g>
		<g id="XMLID_4_">
			<path fill="#55616F" d="M18.489,0.575c0.513,0.512,0.351,0.686-0.339,1.384l-1.045-1.045C17.798,0.22,17.972,0.058,18.489,0.575z
				"/>
			<path fill="#55616F" d="M17.105,0.914l1.045,1.045c-0.008,0.004-0.021,0.016-0.028,0.024l-1.045-1.046
				C17.084,0.93,17.096,0.918,17.105,0.914z"/>
			<polygon fill="#55616F" points="8.578,10.99 7.722,11.338 8.069,10.482 			"/>
			<polygon fill="#55616F" points="7.722,11.338 8.578,10.99 8.832,11.244 7.128,11.931 7.815,10.228 8.069,10.482 			"/>
			<path fill="#55616F" d="M17.44,2.173L16.886,1.62l-8.789,8.789l-0.028,0.073l-0.254-0.254l-0.687,1.703l1.703-0.687L8.578,10.99
				l0.072-0.028L17.44,2.173z M17.077,0.938l1.045,1.046c0.008-0.008,0.021-0.021,0.028-0.024l0.214,0.214l-4.589,4.572
				l-4.818,4.802L6.54,12.52l1.045-2.526l4.693-4.689l4.608-4.608l0.219,0.218C17.096,0.918,17.084,0.93,17.077,0.938z"/>
			<polygon fill="#55616F" points="13.937,17.858 13.937,6.906 14.59,6.906 14.59,18.513 0.491,18.513 0.491,4.412 12.041,4.412 
				12.041,5.066 1.144,5.066 1.144,17.858 			"/>
		</g>
	</g>
</g>
</svg>
