<?xml version="1.0" encoding="utf-8"?>
<!-- Generator: Adobe Illustrator 15.0.0, SVG Export Plug-In . SVG Version: 6.00 Build 0)  -->
<!DOCTYPE svg PUBLIC "-//W3C//DTD SVG 1.1//EN" "http://www.w3.org/Graphics/SVG/1.1/DTD/svg11.dtd">
<svg version="1.1" id="图层_1" xmlns="http://www.w3.org/2000/svg" xmlns:xlink="http://www.w3.org/1999/xlink" x="0px" y="0px"
	 width="166px" height="42.5px" viewBox="0 0 166 42.5" enable-background="new 0 0 166 42.5" xml:space="preserve">
<path fill-rule="evenodd" clip-rule="evenodd" fill="#DEDDDB" d="M78.975,1.584c13.052-0.095,24.405,1.138,34.634,3.226
	c0,0.085,0,0.17,0,0.255C106.337,17.541,99.064,30.022,91.792,42.5c-5.262,0-10.526,0-15.789,0
	C68.789,29.938,61.572,17.372,54.357,4.81c0.056-0.057,0.113-0.112,0.169-0.17c1.782-0.339,3.565-0.679,5.348-1.019
	c3.734-0.509,7.471-1.019,11.205-1.527C73.711,1.923,76.343,1.754,78.975,1.584z"/>
<path fill-rule="evenodd" clip-rule="evenodd" fill="#DEDDDB" d="M52.32,5.149c0.085,0,0.17,0,0.255,0
	C59.789,17.598,67.006,30.052,74.221,42.5c-23.738,0-47.483,0-71.221,0c5.391-15.035,16.475-24.508,30.56-30.729
	c4.22-1.864,8.639-3.533,13.243-5.009C48.002,6.378,51.802,5.755,52.32,5.149z"/>
<path fill-rule="evenodd" clip-rule="evenodd" fill="#DEDDDB" d="M115.307,5.234c18.97,4.869,36.146,13.478,45.331,28.183
	c1.725,2.761,2.737,5.767,3.989,9.083c-23.625,0-47.256,0-70.881,0c0-0.028,0-0.057,0-0.085
	C100.932,30.022,108.12,17.627,115.307,5.234z"/>
</svg>
