<?xml version="1.0" encoding="utf-8"?>
<!-- Generator: Adobe Illustrator 15.0.0, SVG Export Plug-In . SVG Version: 6.00 Build 0)  -->
<!DOCTYPE svg PUBLIC "-//W3C//DTD SVG 1.1//EN" "http://www.w3.org/Graphics/SVG/1.1/DTD/svg11.dtd">
<svg version="1.1" id="Layer_1" xmlns="http://www.w3.org/2000/svg" xmlns:xlink="http://www.w3.org/1999/xlink" x="0px" y="0px"
	 width="53.334px" height="45.588px" viewBox="0 0 53.334 45.588" enable-background="new 0 0 53.334 45.588" xml:space="preserve">
<g>
	<path fill="#FFFFFF" d="M-550.503,46.866c-12.737,0-23.1-10.363-23.1-23.101c0-12.736,10.363-23.099,23.1-23.099
		c12.737,0,23.099,10.362,23.099,23.099C-527.404,36.503-537.766,46.866-550.503,46.866z M-550.503,2.667
		c-11.635,0-21.1,9.465-21.1,21.099c0,11.635,9.465,21.101,21.1,21.101c11.634,0,21.099-9.466,21.099-21.101
		C-529.404,12.132-538.869,2.667-550.503,2.667z"/>
	<path fill="#FFFFFF" d="M122.251,142.608c-12.737,0-23.101-10.362-23.101-23.1s10.363-23.1,23.101-23.1
		c12.736,0,23.099,10.362,23.099,23.1S134.987,142.608,122.251,142.608z M122.251,98.409c-11.635,0-21.101,9.465-21.101,21.1
		s9.466,21.1,21.101,21.1c11.634,0,21.099-9.465,21.099-21.1S133.885,98.409,122.251,98.409z"/>
	<path fill="#FFFFFF" d="M-550.503,42.532c-10.348,0-18.767-8.419-18.767-18.767c0-10.347,8.418-18.765,18.767-18.765
		c10.347,0,18.766,8.418,18.766,18.765C-531.737,34.113-540.156,42.532-550.503,42.532z M-550.503,6.001
		c-9.796,0-17.767,7.969-17.767,17.765c0,9.797,7.97,17.767,17.767,17.767c9.796,0,17.766-7.97,17.766-17.767
		C-532.737,13.97-540.707,6.001-550.503,6.001z"/>
	<path fill="#FFFFFF" d="M-825.665-55.946h-12v-7h-2v7h-12v-11.667h-4v-2.536l17-19.833l5,5.833v-4.13h6v11.13l6,7v2.536h-4V-55.946
		z M-835.665-57.946h8v-11.667h3.825l-5.825-6.796v-9.87h-2v7.536l-7-8.167l-14.825,17.297h3.825v11.667h8v-7h6V-57.946z"/>
	<path fill="#FFFFFF" d="M-730.188-52.696h-0.303c-5.224,0-15.809-5.262-20.974-10.426c-5.165-5.165-10.426-15.75-10.426-20.975
		v-0.303l0.168-0.252c1.258-1.888,5.585-8.045,8.432-8.045c2.376,0,7.241,4.417,8.674,7.876c0.871,2.103,0.282,3.316-0.367,3.965
		c-1.05,1.05-2.1,1.698-2.943,2.22c-1.36,0.841-1.831,1.181-1.831,2.14c0,2.119,2.427,4.546,4.774,6.893
		c2.349,2.349,4.774,4.774,6.893,4.774c0.959,0,1.299-0.471,2.14-1.831c0.521-0.844,1.17-1.894,2.22-2.943
		c0.525-0.525,1.227-0.803,2.03-0.803c3.651,0,9.811,6.21,9.811,9.11c0,2.847-6.158,7.174-8.045,8.432L-730.188-52.696z
		 M-759.884-83.801c0.2,4.835,5.149,14.579,9.834,19.265c4.685,4.685,14.428,9.634,19.264,9.834c3.379-2.293,6.896-5.43,6.896-6.594
		c0-1.679-5.165-7.11-7.811-7.11c-0.354,0-0.515,0.116-0.616,0.217c-0.885,0.886-1.442,1.786-1.933,2.581
		c-0.845,1.366-1.718,2.779-3.841,2.779c-2.946,0-5.67-2.724-8.304-5.357c-2.638-2.638-5.363-5.361-5.363-8.31
		c0-2.123,1.413-2.996,2.779-3.841c0.794-0.491,1.695-1.048,2.581-1.933c0.393-0.394,0.181-1.188-0.067-1.785
		c-1.283-3.097-5.644-6.642-6.826-6.642C-754.456-90.696-757.593-87.18-759.884-83.801z"/>
	<path fill="#FFFFFF" d="M-630.895-61.904c-3.836,0-8.316-1.149-8.316-4.392c0-0.897,0.266-1.646,0.5-2.309
		c0.381-1.074,0.573-1.614-0.186-2.5c-1.454-1.697-4.387-1.697-7.493-1.697s-6.04,0-7.493,1.697c-0.759,0.886-0.568,1.426-0.187,2.5
		c0.234,0.662,0.5,1.411,0.5,2.309c0,3.242-4.48,4.392-8.316,4.392c-1.137,0-4.95-0.122-6.296-1.694
		c-1.051-1.228-1.289-3.723-0.727-7.627c0.246-1.477,0.843-3.472,3.323-6.01c2.855-2.665,7.564-5.694,19.02-5.752l0.346-0.002
		c11.461,0.06,16.169,3.089,18.992,5.722c2.515,2.572,3.111,4.566,3.353,6.021c0.565,3.926,0.328,6.421-0.723,7.648
		C-625.944-62.026-629.758-61.904-630.895-61.904z M-646.39-74.802c3.422,0,6.96,0,9.012,2.396c1.511,1.765,0.979,3.265,0.552,4.47
		c-0.198,0.559-0.385,1.087-0.385,1.64c0,1.554,3.254,2.392,6.316,2.392c2.707,0,4.423-0.582,4.777-0.995
		c0.229-0.267,0.922-1.489,0.267-6.041c-0.203-1.216-0.693-2.769-2.774-4.896c-2.523-2.353-6.837-5.097-17.599-5.15l-0.336-0.002
		c-10.757,0.056-15.071,2.8-17.627,5.185c-2.045,2.095-2.537,3.647-2.744,4.887c-0.652,4.529,0.042,5.752,0.27,6.019
		c0.354,0.413,2.07,0.996,4.777,0.995c3.062,0,6.316-0.838,6.316-2.392c0-0.553-0.187-1.081-0.385-1.64
		c-0.428-1.205-0.959-2.705,0.552-4.47C-653.35-74.802-649.812-74.802-646.39-74.802z"/>
	<path fill="#FFFFFF" d="M-547.084-53.368c-10.52,0-19.078-8.559-19.078-19.078s8.558-19.078,19.078-19.078
		c5.572,0,10.852,2.429,14.485,6.662l0.596,0.694l-11.424,11.722l11.424,11.722l-0.596,0.694
		C-536.233-55.797-541.513-53.368-547.084-53.368z M-547.084-89.524c-9.417,0-17.078,7.661-17.078,17.078
		s7.661,17.078,17.078,17.078c4.683,0,9.135-1.916,12.355-5.288l-11.491-11.79l11.491-11.79
		C-537.948-87.608-542.4-89.524-547.084-89.524z"/>
	<path fill="#FFFFFF" d="M-542.564-80.725c-1.666,0-3.021-1.354-3.021-3.02c0-1.666,1.355-3.021,3.021-3.021
		s3.021,1.355,3.021,3.021C-539.542-82.079-540.898-80.725-542.564-80.725z M-542.564-85.766c-1.115,0-2.021,0.907-2.021,2.021
		c0,1.113,0.907,2.02,2.021,2.02s2.021-0.906,2.021-2.02C-540.542-84.858-541.449-85.766-542.564-85.766z"/>
	<path fill="#FFFFFF" d="M-445.81-52.966h-15.862l0.004-2.932l0.488-0.29c1.404-0.836,3.154-2.789,4.092-5.783
		c-1.445,0.648-2.952,0.984-4.447,0.984c-4.123,0-7.719-2.497-8.949-6.214c-1.356-4.101,0.557-8.572,5.118-11.963
		c6.711-4.988,9.06-8.922,10.734-12.217l0.891-1.754l0.892,1.754c1.676,3.296,4.026,7.23,10.734,12.217
		c4.562,3.391,6.476,7.862,5.119,11.963c-1.23,3.716-4.827,6.213-8.95,6.213c0,0,0,0,0,0c-1.496,0-3.003-0.336-4.448-0.983
		c0.939,2.995,2.689,4.948,4.094,5.783l0.489,0.291V-52.966z M-459.422-54.966h11.365c-2.004-1.518-4.14-4.479-4.803-8.834
		l-0.348-2.287l1.905,1.313c1.694,1.169,3.546,1.786,5.358,1.786h0.001c3.259,0,6.092-1.945,7.051-4.842
		c1.089-3.289-0.52-6.836-4.413-9.729c-5.963-4.433-8.665-8.1-10.433-11.241c-1.766,3.141-4.467,6.807-10.433,11.241
		c-3.893,2.893-5.501,6.438-4.413,9.729c0.958,2.896,3.792,4.843,7.05,4.843c1.811,0,3.663-0.618,5.357-1.787l1.904-1.313
		l-0.348,2.287C-455.283-59.446-457.417-56.483-459.422-54.966z"/>
	<path fill="#FFFFFF" d="M-349.118-50.18h-17.951l0.004-3.137l0.487-0.291c2.364-1.408,4.787-4.847,5.402-9.614
		c-0.561,0.412-1.043,0.822-1.38,1.18c-1.843,1.956-4.312,3.033-6.952,3.033c-5.294,0-9.601-4.35-9.601-9.696
		c0-5.346,4.307-9.694,9.601-9.694c2.538,0,4.901,0.97,6.696,2.739c-0.604-0.957-1.267-1.81-1.824-2.346
		c-1.912-1.84-2.965-4.331-2.965-7.013c0-5.289,4.26-9.638,9.496-9.694c5.259,0.057,9.519,4.406,9.519,9.695
		c0,2.682-1.053,5.172-2.965,7.012c-0.557,0.536-1.219,1.389-1.823,2.346c1.796-1.77,4.159-2.739,6.695-2.739
		c5.295,0,9.602,4.349,9.602,9.694c0,5.347-4.307,9.696-9.601,9.696c-2.641,0-5.109-1.077-6.951-3.032
		c-0.337-0.357-0.819-0.768-1.381-1.18c0.614,4.771,3.039,8.208,5.402,9.613l0.489,0.29V-50.18z M-365.067-52.18l13.949-0.022
		c-2.805-1.93-5.901-6.323-6.036-12.939l-0.036-1.779l1.539,0.895c1.406,0.817,2.707,1.795,3.479,2.614
		c1.46,1.55,3.411,2.403,5.495,2.403c4.191,0,7.601-3.452,7.601-7.696c0-4.242-3.41-7.694-7.602-7.694
		c-2.103,0-4.055,0.843-5.496,2.373c-0.95,1.01-2.467,1.97-3.286,2.452l-2.091,1.231l0.616-2.347
		c0.632-2.406,2.567-5.382,3.998-6.758c1.516-1.459,2.352-3.438,2.352-5.57c0-4.198-3.373-7.65-7.519-7.695
		c-4.124,0.045-7.496,3.496-7.496,7.694c0,2.133,0.836,4.111,2.352,5.571c1.432,1.376,3.366,4.351,3.998,6.757l0.615,2.345
		l-2.089-1.229c-1.394-0.819-2.592-1.714-3.288-2.453c-1.439-1.529-3.392-2.372-5.495-2.372c-4.19,0-7.601,3.452-7.601,7.694
		c0,4.244,3.41,7.696,7.601,7.696c2.083,0,4.036-0.854,5.495-2.403c0.772-0.821,2.073-1.799,3.479-2.615l1.538-0.893l-0.036,1.778
		c-0.135,6.611-3.231,11.007-6.036,12.939V-52.18z"/>
	<path fill="#FFFFFF" d="M-261.543-49.526l-14.326-22.92l14.326-22.92l14.325,22.92L-261.543-49.526z M-273.51-72.446l11.967,19.146
		l11.966-19.146l-11.966-19.146L-273.51-72.446z"/>
	<path fill="#FFFFFF" d="M-149.165-52.214h-35.655v-1c0-6.03,3.086-11.675,8.112-14.95c-0.591-1.343-0.9-2.806-0.9-4.282
		c0-3.685,1.93-7.094,5.01-9.016c-0.903-1.204-1.404-2.681-1.404-4.207c0-3.865,3.145-7.01,7.01-7.01
		c3.866,0,7.011,3.145,7.011,7.01c0,1.526-0.501,3.003-1.404,4.207c3.08,1.922,5.01,5.331,5.01,9.016c0,1.477-0.31,2.939-0.9,4.282
		c5.026,3.275,8.112,8.92,8.112,14.95V-52.214z M-182.788-54.214h31.591c-0.335-5.248-3.29-10.054-7.881-12.711l-0.85-0.491
		l0.476-0.858c0.703-1.27,1.075-2.713,1.075-4.172c0-3.357-1.973-6.433-5.026-7.834l-1.387-0.637l1.137-1.018
		c1.062-0.95,1.671-2.312,1.671-3.734c0-2.763-2.248-5.01-5.011-5.01s-5.01,2.247-5.01,5.01c0,1.423,0.609,2.784,1.671,3.734
		l1.137,1.018l-1.387,0.637c-3.054,1.401-5.026,4.477-5.026,7.834c0,1.459,0.372,2.902,1.075,4.172l0.476,0.858l-0.85,0.491
		C-179.498-64.268-182.453-59.462-182.788-54.214z"/>
	<path fill="#FFFFFF" d="M-72.797-54.614c-11.297,0-20.487-9.19-20.487-20.486c0-11.297,9.19-20.487,20.487-20.487
		c11.296,0,20.486,9.19,20.486,20.487C-52.311-63.805-61.501-54.614-72.797-54.614z M-72.797-93.588
		c-10.194,0-18.487,8.293-18.487,18.487c0,10.193,8.293,18.486,18.487,18.486c10.193,0,18.486-8.293,18.486-18.486
		C-54.311-85.295-62.604-93.588-72.797-93.588z"/>
	<rect x="-82.908" y="-75.438" fill="#FFFFFF" width="19.65" height="1"/>
	
		<rect x="-59.711" y="-56.004" transform="matrix(0.7033 0.7109 -0.7109 0.7033 -54.8577 21.4283)" fill="#FFFFFF" width="13.222" height="2"/>
	<path fill="#FFFFFF" d="M22.993-54.614c-11.297,0-20.487-9.19-20.487-20.486c0-11.297,9.19-20.487,20.487-20.487
		c11.296,0,20.486,9.19,20.486,20.487C43.479-63.805,34.289-54.614,22.993-54.614z M22.993-93.588
		c-10.194,0-18.487,8.293-18.487,18.487c0,10.193,8.293,18.486,18.487,18.486c10.193,0,18.486-8.293,18.486-18.486
		C41.479-85.295,33.187-93.588,22.993-93.588z"/>
	<rect x="12.882" y="-75.438" fill="#FFFFFF" width="19.65" height="1"/>
	<rect x="22.206" y="-84.763" fill="#FFFFFF" width="1" height="19.65"/>
	
		<rect x="36.079" y="-56.004" transform="matrix(0.7033 0.7109 -0.7109 0.7033 -26.4364 -46.6682)" fill="#FFFFFF" width="13.222" height="2"/>
	<path fill="#FFFFFF" d="M117.342-54.614c-11.297,0-20.487-9.19-20.487-20.486c0-11.297,9.19-20.487,20.487-20.487
		c11.296,0,20.486,9.19,20.486,20.487C137.828-63.805,128.638-54.614,117.342-54.614z M117.342-93.588
		c-10.194,0-18.487,8.293-18.487,18.487c0,10.193,8.293,18.486,18.487,18.486c10.193,0,18.486-8.293,18.486-18.486
		C135.828-85.295,127.535-93.588,117.342-93.588z"/>
	<path fill="#FFFFFF" d="M217.436-50.622c-12.399,0-22.487-10.087-22.487-22.486s10.088-22.487,22.487-22.487
		s22.486,10.088,22.486,22.487S229.835-50.622,217.436-50.622z M217.436-93.596c-11.297,0-20.487,9.19-20.487,20.487
		c0,11.296,9.19,20.486,20.487,20.486c11.296,0,20.486-9.19,20.486-20.486C237.922-84.405,228.731-93.596,217.436-93.596z"/>
	
		<rect x="130.427" y="-56.004" transform="matrix(0.7033 0.7109 -0.7109 0.7033 1.5575 -113.7406)" fill="#FFFFFF" width="13.222" height="2"/>
	<path fill="#FFFFFF" d="M217.435-70.865c-1.237,0-2.244-1.007-2.244-2.244s1.007-2.244,2.244-2.244s2.244,1.007,2.244,2.244
		S218.672-70.865,217.435-70.865z M217.435-74.354c-0.686,0-1.244,0.559-1.244,1.244s0.559,1.244,1.244,1.244
		s1.244-0.559,1.244-1.244S218.12-74.354,217.435-74.354z"/>
	<path fill="#FFFFFF" d="M227.835-72.609h-8.239c-0.276,0-0.5-0.224-0.5-0.5s0.224-0.5,0.5-0.5h8.239c0.276,0,0.5,0.224,0.5,0.5
		S228.111-72.609,227.835-72.609z"/>
	<path fill="#FFFFFF" d="M217.435-74.771c-0.276,0-0.5-0.224-0.5-0.5v-12.343c0-0.276,0.224-0.5,0.5-0.5s0.5,0.224,0.5,0.5v12.343
		C217.935-74.994,217.711-74.771,217.435-74.771z"/>
	<path fill="#FFFFFF" d="M-88.01,44.093v-2.66l0.561-0.274c1.962-0.96,4.253-2.923,4.253-5.292c0-0.169-0.007-0.337-0.021-0.508
		c-4.581-3.171-7.198-7.785-7.198-12.728c0-9.177,9.085-16.643,20.252-16.643s20.252,7.466,20.252,16.643
		c0,9.176-9.085,16.642-20.252,16.642c-0.886,0-1.773-0.047-2.646-0.141c-4.387,4.153-9.616,4.832-14.177,4.938L-88.01,44.093z
		 M-70.164,7.988c-10.064,0-18.252,6.568-18.252,14.643c0,4.396,2.438,8.521,6.688,11.32l0.373,0.246l0.066,0.441
		c0.062,0.415,0.093,0.827,0.093,1.228c0,2.584-1.715,4.699-3.711,6.104c3.833-0.287,7.705-1.264,11.034-4.595l0.347-0.347
		l0.487,0.062c0.942,0.121,1.909,0.182,2.875,0.182c10.064,0,18.252-6.568,18.252-14.642C-51.912,14.557-60.1,7.988-70.164,7.988z"
		/>
	<path fill="#FFFFFF" d="M45.687,43.568c-2.519,0-4.869-0.97-6.65-2.738c-0.965,0.232-1.958,0.35-2.957,0.35
		c-6.247,0-11.329-4.543-11.329-10.126s5.082-10.126,11.329-10.126s11.329,4.543,11.329,10.126c0,2.11-0.718,4.13-2.076,5.845
		c-0.219,0.495-0.33,1.022-0.33,1.568c0,1.475,0.817,2.805,2.133,3.472l0.273,0.14v1.341l-0.431,0.06
		C46.55,43.538,46.115,43.568,45.687,43.568z M39.351,39.716l0.204,0.216c1.732,1.824,4.119,2.766,6.646,2.621
		c-1.369-0.899-2.199-2.42-2.199-4.086c0-0.711,0.15-1.397,0.446-2.04l0.064-0.104c1.24-1.547,1.896-3.369,1.896-5.27
		c0-5.032-4.634-9.126-10.329-9.126S25.75,26.021,25.75,31.054s4.634,9.126,10.329,9.126c1.011,0,2.015-0.131,2.985-0.388
		L39.351,39.716z"/>
	<path fill="#FFFFFF" d="M4.998,41.687v-2.66l0.56-0.274c1.963-0.961,4.254-2.924,4.254-5.292c0-0.165-0.008-0.335-0.022-0.508
		c-4.58-3.171-7.197-7.786-7.197-12.728c0-9.177,9.085-16.643,20.252-16.643c11.075,0,19.969,7.123,20.246,16.217l0.048,1.591
		l-1.454-0.646c-1.752-0.779-3.638-1.174-5.604-1.174c-3.348,0-6.506,1.168-8.893,3.289c-2.446,2.176-3.794,5.086-3.794,8.195
		c0,1.527,0.32,3.004,0.953,4.39l0.628,1.377l-1.514,0.038c-1.088,0.026-2.19-0.018-3.263-0.134
		c-4.387,4.155-9.616,4.833-14.176,4.938L4.998,41.687z M22.844,5.582c-10.064,0-18.252,6.568-18.252,14.643
		c0,4.395,2.438,8.521,6.687,11.32l0.373,0.246l0.066,0.441c0.062,0.418,0.094,0.831,0.094,1.228c0,2.583-1.716,4.699-3.712,6.104
		c3.832-0.287,7.705-1.264,11.034-4.596l0.347-0.348l0.488,0.062c0.659,0.085,1.331,0.141,2.008,0.166
		c-0.388-1.223-0.584-2.494-0.584-3.796c0-3.688,1.586-7.13,4.466-9.689c2.753-2.447,6.383-3.795,10.221-3.795
		c1.679,0,3.308,0.252,4.861,0.752C39.763,11.169,32.017,5.582,22.844,5.582z"/>
	<path fill="#FFFFFF" d="M101.006,39.295v-2.592l0.562-0.273c2.309-1.126,3.8-3.043,3.8-4.883c0-0.146-0.006-0.291-0.017-0.436
		c-4.297-2.973-6.751-7.294-6.751-11.924c0-8.604,8.545-15.605,19.048-15.605c10.504,0,19.049,7.001,19.049,15.605
		c0,8.606-8.545,15.607-19.049,15.607c-0.812,0-1.636-0.044-2.458-0.13c-4.104,3.87-8.745,4.507-13.161,4.607L101.006,39.295z
		 M117.647,5.582c-9.4,0-17.048,6.104-17.048,13.605c0,4.082,2.274,7.915,6.241,10.517l0.373,0.244l0.066,0.441
		c0.058,0.379,0.087,0.768,0.087,1.157c0,2.085-1.178,4.121-3.17,5.614c3.43-0.29,6.896-1.229,9.931-4.253l0.347-0.344l0.484,0.061
		c0.897,0.112,1.802,0.17,2.688,0.17c9.4,0,17.049-6.104,17.049-13.607C134.696,11.686,127.048,5.582,117.647,5.582z"/>
	<path fill="#FFFFFF" d="M141.01,43.598l-0.511-0.012c-4.189-0.094-7.666-0.81-10.964-3.966c-4.34,0.482-8.634-0.43-12.06-2.543
		l-1.49-0.92l1.751-0.006c5.324-0.019,10.352-1.724,14.157-4.802c1.909-1.546,3.414-3.357,4.474-5.384
		c1.119-2.142,1.687-4.422,1.687-6.778c0-0.378-0.015-0.756-0.045-1.131l-0.095-1.179l0.911,0.753
		c2.961,2.445,4.591,5.677,4.591,9.098c0,3.898-2.123,7.539-5.835,10.021c-0.021,0.188-0.031,0.38-0.031,0.571
		c0,1.86,1.188,3.545,3.178,4.505l0.282,0.137V43.598z M129.892,38.569l0.172,0.17c2.976,2.931,6.137,3.69,9.921,3.831
		c-2.157-1.155-3.435-3.096-3.435-5.249c0-0.316,0.024-0.633,0.072-0.94l0.034-0.221l0.188-0.122
		c3.541-2.296,5.572-5.689,5.572-9.31c0-2.77-1.186-5.413-3.362-7.548c0,0.002,0,0.005,0,0.007c0,2.52-0.605,4.955-1.8,7.241
		c-1.123,2.148-2.715,4.065-4.731,5.698c-3.539,2.863-8.081,4.591-12.944,4.953c2.987,1.409,6.538,1.958,10.073,1.52L129.892,38.569
		z"/>
	<path fill="#FFFFFF" d="M-189.155,43.361V9.713l14.571-5.828v33.648L-189.155,43.361z M-188.155,10.391v31.494l12.571-5.029V5.361
		L-188.155,10.391z"/>
	<path fill="#FFFFFF" d="M-157.798,44.011l-15.571-5.19V4.141l15.571,5.19V44.011z M-171.369,37.379l11.571,3.856V10.772
		l-11.571-3.856V37.379z"/>
	<path fill="#FFFFFF" d="M-156.584,42.276V8.627l11.857-4.742v33.648L-156.584,42.276z M-155.584,9.305V40.8l9.857-3.944V5.361
		L-155.584,9.305z"/>
	<path fill="#FFFFFF" d="M-257.275,46.425h-10.566l-0.005-0.995c-0.019-4.028-3.289-7.306-7.29-7.306
		c-1.284,0-2.544,0.339-3.643,0.98l-0.867,0.507l-5.286-9.154l0.86-0.502c3.485-2.03,4.692-6.504,2.69-9.972
		c-0.641-1.113-1.57-2.037-2.688-2.674l-0.875-0.498l5.29-9.158l0.865,0.499c1.121,0.646,2.393,0.986,3.677,0.986
		c2.605,0,5.027-1.392,6.319-3.633c0.646-1.115,0.982-2.386,0.973-3.676l-0.008-1.008l10.575-0.001v1
		c0,4.051,3.271,7.346,7.292,7.346c1.286,0,2.552-0.343,3.659-0.992l0.868-0.51l5.288,9.159l-0.864,0.5
		c-3.501,2.027-4.715,6.505-2.706,9.982c0.642,1.111,1.564,2.033,2.669,2.664l0.872,0.498l-5.285,9.156l-0.865-0.495
		c-1.117-0.64-2.383-0.979-3.66-0.979c-2.604,0-5.025,1.393-6.318,3.633c-0.639,1.107-0.976,2.366-0.973,3.639L-257.275,46.425z
		 M-265.904,44.425h6.68c0.138-1.276,0.541-2.52,1.188-3.641c1.649-2.857,4.734-4.633,8.051-4.633c1.294,0,2.577,0.272,3.763,0.793
		l3.339-5.783c-1.039-0.757-1.915-1.729-2.564-2.854c-2.392-4.141-1.202-9.392,2.599-12.167l-3.337-5.778
		c-1.183,0.529-2.471,0.806-3.774,0.806c-4.788,0-8.741-3.661-9.239-8.346l-6.668,0.001c-0.132,1.296-0.538,2.554-1.193,3.686
		c-1.647,2.855-4.732,4.631-8.051,4.631c-1.302,0-2.592-0.274-3.783-0.802l-3.338,5.779c1.052,0.762,1.936,1.739,2.585,2.868
		c2.383,4.129,1.202,9.374-2.581,12.152l3.339,5.782c1.175-0.522,2.455-0.795,3.755-0.795
		C-270.373,36.124-266.422,39.766-265.904,44.425z"/>
	<path fill="#FFFFFF" d="M-262.544,32.95c-5.143,0-9.327-4.185-9.327-9.327s4.185-9.327,9.327-9.327s9.327,4.185,9.327,9.327
		S-257.401,32.95-262.544,32.95z M-262.544,15.296c-4.592,0-8.327,3.735-8.327,8.327s3.735,8.327,8.327,8.327
		s8.327-3.735,8.327-8.327S-257.952,15.296-262.544,15.296z"/>
	<path fill="#FFFFFF" d="M231.825,139.918h-28.108c-5.201,0-9.433-4.231-9.433-9.433v-1h46.974v1
		C241.258,135.687,237.026,139.918,231.825,139.918z M196.352,131.485c0.489,3.627,3.605,6.433,7.365,6.433h28.108
		c3.76,0,6.876-2.806,7.365-6.433H196.352z"/>
	<rect x="231.966" y="133.437" fill="#FFFFFF" width="2" height="2"/>
	<path fill="#FFFFFF" d="M241.391,127.675h-47.239l3.061-24.487h41.117L241.391,127.675z M196.417,125.675h42.708l-2.562-20.487
		h-37.586L196.417,125.675z"/>
	<g>
		<rect x="-558.498" y="23.267" fill="#FFFFFF" width="15.988" height="1"/>
		<rect x="-551.003" y="15.772" fill="#FFFFFF" width="1" height="15.988"/>
	</g>
	<path fill="#FFFFFF" d="M-742.518,46.866c-12.737,0-23.1-10.363-23.1-23.101c0-12.736,10.363-23.099,23.1-23.099
		c12.737,0,23.099,10.362,23.099,23.099C-719.419,36.503-729.781,46.866-742.518,46.866z M-742.518,2.667
		c-11.635,0-21.1,9.465-21.1,21.099c0,11.635,9.465,21.101,21.1,21.101c11.634,0,21.099-9.466,21.099-21.101
		C-721.419,12.132-730.884,2.667-742.518,2.667z"/>
	<path fill="#FFFFFF" d="M-742.518,42.532c-10.348,0-18.767-8.419-18.767-18.767c0-10.347,8.418-18.765,18.767-18.765
		c10.347,0,18.766,8.418,18.766,18.765C-723.752,34.113-732.171,42.532-742.518,42.532z M-742.518,6.001
		c-9.796,0-17.767,7.969-17.767,17.765c0,9.797,7.97,17.767,17.767,17.767c9.796,0,17.766-7.97,17.766-17.767
		C-724.752,13.97-732.722,6.001-742.518,6.001z"/>
	<g>
		
			<rect x="-750.513" y="23.267" transform="matrix(0.7071 0.7071 -0.7071 0.7071 -200.6511 531.9775)" fill="#FFFFFF" width="15.988" height="1"/>
		
			<rect x="-743.018" y="15.773" transform="matrix(0.7071 0.7071 -0.7071 0.7071 -200.6731 532.001)" fill="#FFFFFF" width="1" height="15.988"/>
	</g>
	<path fill="#FFFFFF" d="M-646.793,46.866c-12.737,0-23.1-10.363-23.1-23.101c0-12.736,10.363-23.099,23.1-23.099
		c12.737,0,23.099,10.362,23.099,23.099C-623.694,36.503-634.057,46.866-646.793,46.866z M-646.793,2.667
		c-11.635,0-21.1,9.465-21.1,21.099c0,11.635,9.465,21.101,21.1,21.101c11.634,0,21.099-9.466,21.099-21.101
		C-625.694,12.132-635.159,2.667-646.793,2.667z"/>
	<path fill="#FFFFFF" d="M-646.793,42.532c-10.348,0-18.767-8.419-18.767-18.767c0-10.347,8.418-18.765,18.767-18.765
		c10.347,0,18.766,8.418,18.766,18.765C-628.028,34.113-636.446,42.532-646.793,42.532z M-646.793,6.001
		c-9.796,0-17.767,7.969-17.767,17.765c0,9.797,7.97,17.767,17.767,17.767c9.796,0,17.766-7.97,17.766-17.767
		C-629.028,13.97-636.998,6.001-646.793,6.001z"/>
	<rect x="-654.788" y="23.267" fill="#FFFFFF" width="15.988" height="1"/>
	<path fill="#FFFFFF" d="M218.394,430.976c-12.737,0-23.101-10.363-23.101-23.101c0-12.736,10.363-23.099,23.101-23.099
		c12.736,0,23.099,10.362,23.099,23.099C241.492,420.612,231.13,430.976,218.394,430.976z M218.394,386.776
		c-11.635,0-21.101,9.465-21.101,21.099c0,11.635,9.466,21.101,21.101,21.101c11.634,0,21.099-9.466,21.099-21.101
		C239.492,396.241,230.027,386.776,218.394,386.776z"/>
	<g>
		<rect x="210.398" y="407.376" fill="#FFFFFF" width="15.988" height="1"/>
		<rect x="217.893" y="399.882" fill="#FFFFFF" width="1" height="15.988"/>
	</g>
	<path fill="#FFFFFF" d="M26.378,430.976c-12.737,0-23.1-10.363-23.1-23.101c0-12.736,10.362-23.099,23.1-23.099
		s23.1,10.362,23.1,23.099C49.478,420.612,39.115,430.976,26.378,430.976z M26.378,386.776c-11.635,0-21.1,9.465-21.1,21.099
		c0,11.635,9.465,21.101,21.1,21.101s21.1-9.466,21.1-21.101C47.478,396.241,38.013,386.776,26.378,386.776z"/>
	<g>
		
			<rect x="18.383" y="407.376" transform="matrix(0.7071 0.7071 -0.7071 0.7071 296.1244 100.8008)" fill="#FFFFFF" width="15.988" height="1"/>
		
			<rect x="25.877" y="399.882" transform="matrix(0.7071 0.7071 -0.7071 0.7071 296.1376 100.8124)" fill="#FFFFFF" width="1" height="15.988"/>
	</g>
	<path fill="#FFFFFF" d="M122.103,430.976c-12.737,0-23.1-10.363-23.1-23.101c0-12.736,10.362-23.099,23.1-23.099
		s23.1,10.362,23.1,23.099C145.202,420.612,134.84,430.976,122.103,430.976z M122.103,386.776c-11.635,0-21.1,9.465-21.1,21.099
		c0,11.635,9.465,21.101,21.1,21.101s21.1-9.466,21.1-21.101C143.202,396.241,133.737,386.776,122.103,386.776z"/>
	<rect x="114.108" y="407.376" fill="#FFFFFF" width="15.988" height="1"/>
	<path fill="#FFFFFF" d="M-850.629,42.912h-3.268c-1.802,0-3.268-1.466-3.268-3.269v-7.219l13.73-13.729
		c-0.081-0.571-0.121-1.152-0.121-1.733c0-6.805,5.536-12.341,12.341-12.341s12.341,5.536,12.341,12.341
		s-5.536,12.341-12.341,12.341c-1.225,0-2.43-0.179-3.591-0.53l-2.8,2.799h-3.95v4.536h-4.537v4.536h-4.537V42.912z
		 M-855.165,33.253v6.391c0,0.699,0.569,1.269,1.268,1.269h1.268v-2.269h4.537v-4.536h4.537v-4.536h5.122l3.099-3.099l0.598,0.216
		c1.129,0.407,2.313,0.614,3.522,0.614c5.702,0,10.341-4.639,10.341-10.341s-4.639-10.341-10.341-10.341
		s-10.341,4.639-10.341,10.341c0,0.64,0.059,1.276,0.173,1.896l0.097,0.518L-855.165,33.253z"/>
	<path fill="#FFFFFF" d="M-828.951,18.601c-2.152,0-3.902-1.751-3.902-3.902s1.75-3.902,3.902-3.902s3.902,1.751,3.902,3.902
		S-826.799,18.601-828.951,18.601z M-828.951,11.796c-1.601,0-2.902,1.302-2.902,2.902s1.302,2.902,2.902,2.902
		s2.902-1.302,2.902-2.902S-827.351,11.796-828.951,11.796z"/>
	<path fill="#FFFFFF" d="M-450.363,48.593h-8.194l-1.224-7.339c-0.859-0.278-1.702-0.628-2.518-1.044l-6.059,4.325l-5.793-5.793
		l4.327-6.06c-0.413-0.808-0.762-1.651-1.043-2.518l-7.342-1.225v-8.193l7.342-1.226c0.279-0.861,0.628-1.703,1.043-2.517
		l-4.328-6.06l5.794-5.793l6.058,4.326c0.81-0.413,1.653-0.762,2.518-1.042l1.224-7.342h8.194l1.224,7.339
		c0.859,0.278,1.702,0.628,2.518,1.044l6.059-4.325l5.793,5.793l-4.327,6.06c0.413,0.808,0.762,1.65,1.043,2.518l7.342,1.225v8.194
		l-7.342,1.221c-0.279,0.86-0.628,1.703-1.043,2.517l4.328,6.06l-5.793,5.793l-6.059-4.323c-0.81,0.414-1.653,0.763-2.518,1.043
		L-450.363,48.593z M-456.863,46.593h4.806l1.152-6.909l0.61-0.172c1.135-0.321,2.232-0.775,3.262-1.351l0.553-0.309l5.7,4.067
		l3.398-3.398l-4.071-5.699l0.308-0.553c0.579-1.04,1.034-2.139,1.352-3.264l0.172-0.611l6.909-1.148V22.44l-6.908-1.152
		l-0.173-0.609c-0.322-1.139-0.776-2.235-1.351-3.262l-0.31-0.553l4.072-5.702l-3.398-3.398l-5.7,4.069l-0.553-0.308
		c-1.042-0.581-2.14-1.036-3.263-1.354l-0.61-0.172l-1.152-6.905h-4.806l-1.152,6.908l-0.61,0.172
		c-1.136,0.321-2.234,0.776-3.263,1.352l-0.553,0.309l-5.701-4.071l-3.397,3.398l4.071,5.7l-0.308,0.554
		c-0.578,1.036-1.033,2.135-1.352,3.263l-0.173,0.609l-6.908,1.152v4.807l6.909,1.151l0.172,0.609
		c0.322,1.139,0.776,2.236,1.351,3.263l0.31,0.553l-4.072,5.702l3.398,3.398l5.7-4.069l0.553,0.308
		c1.042,0.581,2.14,1.036,3.263,1.353l0.61,0.173L-456.863,46.593z"/>
	<path fill="#FFFFFF" d="M-454.46,31.844c-3.86,0-7-3.141-7-7s3.14-7,7-7c3.859,0,7,3.141,7,7S-450.601,31.844-454.46,31.844z
		 M-454.46,18.844c-3.309,0-6,2.691-6,6s2.691,6,6,6c3.308,0,6-2.691,6-6S-451.152,18.844-454.46,18.844z"/>
	<path fill="#FFFFFF" d="M-356.223,46.255h-5.633l-0.782-4.308c-0.05-0.01-0.1-0.021-0.15-0.03l-2.371,3.68l-5.203-2.154
		l0.925-4.281c-0.042-0.028-0.084-0.057-0.127-0.085l-3.603,2.493l-3.981-3.981l2.494-3.602c-0.028-0.042-0.057-0.084-0.085-0.127
		l-4.282,0.924l-2.153-5.202l3.679-2.371c-0.01-0.05-0.02-0.101-0.029-0.15l-4.308-0.782v-5.633l4.308-0.782
		c0.01-0.05,0.021-0.1,0.031-0.15l-3.681-2.371l2.153-5.202l4.281,0.924c0.028-0.043,0.058-0.085,0.086-0.128l-2.494-3.601
		l3.981-3.981l3.603,2.493c0.043-0.029,0.085-0.058,0.127-0.086l-0.925-4.28l5.201-2.154l2.372,3.68
		c0.051-0.011,0.101-0.021,0.151-0.03l0.782-4.308h5.632l0.785,4.309c0.05,0.01,0.1,0.02,0.15,0.029l2.37-3.68l5.202,2.154
		l-0.925,4.28c0.043,0.028,0.086,0.058,0.128,0.086l3.602-2.494l3.98,3.982l-2.493,3.602c0.028,0.042,0.058,0.085,0.085,0.128
		l4.281-0.925l2.154,5.202l-3.68,2.371c0.01,0.051,0.021,0.101,0.03,0.15l4.308,0.782v5.633l-4.309,0.782
		c-0.01,0.05-0.02,0.1-0.029,0.15l3.68,2.371l-2.154,5.202l-4.281-0.924c-0.028,0.043-0.057,0.085-0.085,0.127l2.493,3.602
		l-3.98,3.981l-3.603-2.493c-0.043,0.028-0.085,0.057-0.127,0.085l0.925,4.281l-5.203,2.154l-2.371-3.679
		c-0.05,0.01-0.1,0.021-0.15,0.03L-356.223,46.255z M-360.186,44.255h2.293l0.737-4.055l0.706-0.107
		c0.457-0.068,0.923-0.161,1.383-0.274l0.693-0.171l2.231,3.463l2.118-0.877l-0.869-4.025l0.606-0.37
		c0.402-0.246,0.796-0.507,1.173-0.786l0.574-0.425l3.393,2.349l1.622-1.622l-2.35-3.393l0.427-0.575
		c0.278-0.377,0.54-0.771,0.786-1.173l0.371-0.604l4.023,0.868l0.877-2.118l-3.459-2.229l0.166-0.689
		c0.109-0.457,0.204-0.92,0.275-1.391l0.107-0.706l4.055-0.736v-2.293l-4.055-0.736l-0.107-0.706
		c-0.071-0.469-0.164-0.931-0.275-1.387l-0.168-0.691l3.461-2.23l-0.877-2.118l-4.021,0.869l-0.37-0.603
		c-0.249-0.403-0.511-0.798-0.79-1.176l-0.427-0.575l2.35-3.393l-1.622-1.621l-3.389,2.347l-0.574-0.423
		c-0.379-0.278-0.771-0.54-1.175-0.786l-0.609-0.369l0.87-4.027l-2.117-0.877l-2.229,3.46l-0.69-0.166
		c-0.455-0.11-0.919-0.205-1.387-0.276l-0.707-0.106l-0.738-4.056h-2.294l-0.736,4.056l-0.707,0.106
		c-0.453,0.069-0.92,0.161-1.386,0.275l-0.691,0.169l-2.232-3.462l-2.116,0.877l0.87,4.021l-0.605,0.371
		c-0.403,0.247-0.797,0.51-1.174,0.789l-0.575,0.425l-3.394-2.349l-1.621,1.622l2.349,3.389l-0.424,0.575
		c-0.278,0.379-0.541,0.771-0.786,1.175l-0.37,0.608l-4.027-0.87l-0.876,2.118l3.458,2.229l-0.165,0.689
		c-0.109,0.457-0.204,0.92-0.275,1.391l-0.107,0.706l-4.055,0.736v2.293l4.055,0.736l0.107,0.706
		c0.071,0.469,0.164,0.932,0.275,1.387l0.168,0.691l-3.461,2.23l0.877,2.118l4.023-0.868l0.371,0.604
		c0.246,0.402,0.508,0.796,0.787,1.173l0.426,0.575l-2.35,3.393l1.621,1.622l3.394-2.349l0.575,0.425
		c0.364,0.271,0.759,0.534,1.172,0.785l0.607,0.37l-0.87,4.026l2.118,0.877l2.229-3.459l0.689,0.165
		c0.457,0.11,0.921,0.206,1.39,0.276l0.707,0.107L-360.186,44.255z"/>
	<path fill="#FFFFFF" d="M-359.039,32.579c-5.027,0-9.118-4.091-9.118-9.118s4.091-9.117,9.118-9.117s9.117,4.09,9.117,9.117
		S-354.012,32.579-359.039,32.579z M-359.039,15.344c-4.476,0-8.118,3.642-8.118,8.117c0,4.477,3.643,8.118,8.118,8.118
		s8.117-3.642,8.117-8.118C-350.922,18.985-354.563,15.344-359.039,15.344z"/>
	<path fill="#FFFFFF" d="M224.715,46.553h-14c-2.757,0-5-2.243-5-5l-3.102-32h30.203l-3.106,32.097
		C229.715,44.31,227.472,46.553,224.715,46.553z M204.816,11.553l2.894,29.903c0.005,1.751,1.351,3.097,3.005,3.097h14
		c1.654,0,3-1.346,3-3l2.898-30H204.816z"/>
	<path fill="#FFFFFF" d="M227.215,11.053h-19v-3.5c0-2.481,2.019-4.5,4.5-4.5h10c2.481,0,4.5,2.019,4.5,4.5V11.053z M209.215,10.053
		h17v-2.5c0-1.93-1.57-3.5-3.5-3.5h-10c-1.93,0-3.5,1.57-3.5,3.5V10.053z"/>
	<path fill-rule="evenodd" clip-rule="evenodd" fill="#FFFFFF" d="M199.715,9.553h36c0.553,0,1,0.447,1,1s-0.447,1-1,1h-36
		c-0.553,0-1-0.447-1-1S199.162,9.553,199.715,9.553z"/>
	<path fill-rule="evenodd" clip-rule="evenodd" fill="#FFFFFF" d="M211.715,16.553c0.553,0,1,0.447,1,1l1,21c0,0.553-0.447,1-1,1
		s-1-0.447-1-1l-1-21C210.715,17,211.162,16.553,211.715,16.553z"/>
	<path fill-rule="evenodd" clip-rule="evenodd" fill="#FFFFFF" d="M217.715,16.553c0.553,0,1,0.447,1,1v21c0,0.553-0.447,1-1,1
		s-1-0.447-1-1v-21C216.715,17,217.162,16.553,217.715,16.553z"/>
	<path fill-rule="evenodd" clip-rule="evenodd" fill="#FFFFFF" d="M223.715,16.553c0.553,0,1,0.447,1,1l-1,21c0,0.553-0.447,1-1,1
		s-1-0.447-1-1l1-21C222.715,17,223.162,16.553,223.715,16.553z"/>
	<g>
		<path fill="#FFFFFF" d="M117.909,126.178c-0.437,0-0.753-0.344-0.753-0.817v-11.703c0-0.632,0.62-1.016,1.187-0.699l10.559,5.867
			c0.279,0.153,0.441,0.403,0.441,0.684s-0.162,0.53-0.444,0.685l-10.554,5.866C118.201,126.139,118.055,126.178,117.909,126.178z
			 M118.156,113.998v11.021l9.915-5.511L118.156,113.998z"/>
	</g>
	<path fill="#FFFFFF" d="M-729.099,130.87c-3.185,0-6.341-0.893-8.66-2.449c-2.158-1.448-5.111-2.279-8.102-2.279
		c-3.267,0-6.188,1.706-8.102,2.988l-0.778,0.522v-27.205l0.221-0.148c2.02-1.356,5.115-3.159,8.659-3.159
		c3.186,0,6.343,0.893,8.66,2.449c2.159,1.448,5.112,2.279,8.102,2.279c3.063,0,5.815-1.57,8.103-3.106l0.779-0.522v27.205
		l-0.221,0.148C-722.711,129.119-725.749,130.87-729.099,130.87z M-745.861,125.142c3.185,0,6.341,0.893,8.66,2.449
		c2.157,1.448,5.11,2.279,8.102,2.279c2.964,0,5.638-1.472,7.882-2.96v-24.809c-2.167,1.381-4.9,2.767-7.882,2.767
		c-3.184,0-6.34-0.893-8.66-2.449c-2.156-1.448-5.109-2.279-8.102-2.279c-3.147,0-5.968,1.579-7.88,2.842v24.812
		C-751.743,126.535-748.973,125.142-745.861,125.142z"/>
	<path fill="#FFFFFF" d="M-756.034,142.544h-7.588V99.64c0-2.092,1.702-3.793,3.793-3.793c2.092,0,3.795,1.701,3.795,3.793V142.544z
		 M-761.622,140.544h3.588V99.64c0-0.988-0.805-1.793-1.795-1.793c-0.989,0-1.793,0.805-1.793,1.793V140.544z"/>
	<path fill="#FFFFFF" d="M-838.984,143.339c-11.337,0-20.561-9.224-20.561-20.561s9.224-20.56,20.561-20.56h1v18.941l16.945-8.473
		l0.447,0.895c1.438,2.872,2.167,5.966,2.167,9.196C-818.424,134.115-827.647,143.339-838.984,143.339z M-839.984,104.245
		c-9.771,0.521-17.561,8.635-17.561,18.533c0,10.234,8.326,18.561,18.561,18.561c10.234,0,18.56-8.326,18.56-18.561
		c0-2.58-0.515-5.063-1.532-7.396l-18.028,9.014V104.245z"/>
	<path fill="#FFFFFF" d="M-835.69,116.999V96.13h0.5c7.641,0,14.517,4.248,17.945,11.087l0.225,0.447L-835.69,116.999z
		 M-834.69,97.137v18.245l16.321-8.162C-821.619,101.13-827.797,97.312-834.69,97.137z"/>
	<path fill="#FFFFFF" d="M-630.887,131.744h-31.74c-1.801,0-3.267-1.466-3.267-3.267v-9.431l11.867-14.24h14.54l11.867,14.24v9.431
		C-627.62,130.278-629.085,131.744-630.887,131.744z M-663.894,119.771v8.706c0,0.698,0.568,1.267,1.267,1.267h31.74
		c0.699,0,1.267-0.568,1.267-1.267v-8.706l-10.804-12.965h-12.667L-663.894,119.771z"/>
	<path fill="#FFFFFF" d="M-642.016,124.443h-9.482l-4.534-4.534h-6.978l10.278-12.336h11.949l10.279,12.336h-6.978L-642.016,124.443
		z M-651.084,123.443h8.654l4.535-4.534h5.257l-8.613-10.336h-11.012l-8.612,10.336h5.257L-651.084,123.443z"/>
	<path fill="#FFFFFF" d="M-533.903,131.744h-31.739c-1.801,0-3.267-1.466-3.267-3.267v-9.431l11.867-14.24h14.539l11.867,14.24
		v9.431C-530.636,130.278-532.102,131.744-533.903,131.744z M-566.91,119.771v8.706c0,0.698,0.568,1.267,1.267,1.267h31.739
		c0.699,0,1.267-0.568,1.267-1.267v-8.706l-10.804-12.965h-12.666L-566.91,119.771z"/>
	<path fill="#FFFFFF" d="M-545.032,124.443h-9.482l-3.267-3.268h16.017L-545.032,124.443z M-554.1,123.443h8.654l1.267-1.268
		h-11.188L-554.1,123.443z"/>
	<path fill="#FFFFFF" d="M-533.52,119.909h-32.506l10.278-12.336h11.949L-533.52,119.909z M-563.891,118.909h28.236l-8.613-10.336
		h-11.012L-563.891,118.909z"/>
	<path fill="#FFFFFF" d="M-541.702,113.107h-16.141l2.398-3.267h11.345L-541.702,113.107z M-555.869,112.107h12.192l-0.93-1.267
		h-10.332L-555.869,112.107z"/>
	<path fill="#FFFFFF" d="M-538.375,117.642h-22.797l2.397-3.267h18.002L-538.375,117.642z M-559.197,116.642h18.848l-0.93-1.267
		h-16.988L-559.197,116.642z"/>
	<path fill="#FFFFFF" d="M-436.745,137.083h-35.729c-1.208,0-2.191-0.983-2.191-2.191v-25.425l7.732-7.731h24.647l7.732,7.731
		v25.425C-434.554,136.1-435.537,137.083-436.745,137.083z M-472.666,110.295v24.597c0,0.105,0.085,0.191,0.191,0.191h35.729
		c0.105,0,0.191-0.086,0.191-0.191v-24.597l-6.56-6.56h-22.991L-472.666,110.295z"/>
	<path fill="#FFFFFF" d="M-454.61,131.959l-13.335-10.668h8.071v-7.146h10.528v7.146h8.071L-454.61,131.959z M-465.094,122.291
		l10.484,8.387l10.484-8.387h-6.221v-7.146h-8.528v7.146H-465.094z"/>
	<path fill="#FFFFFF" d="M-440.099,108.999h-29.024l3.383-3.382h22.26L-440.099,108.999z M-466.708,107.999h24.195l-1.382-1.382
		h-21.432L-466.708,107.999z"/>
	<path fill="#FFFFFF" d="M-340.175,137.083h-35.729c-1.208,0-2.191-0.983-2.191-2.191v-25.425l7.732-7.731h24.647l7.731,7.731
		v25.425C-337.983,136.1-338.966,137.083-340.175,137.083z M-376.095,110.295v24.597c0,0.105,0.086,0.191,0.191,0.191h35.729
		c0.105,0,0.191-0.086,0.191-0.191v-24.597l-6.56-6.56h-22.992L-376.095,110.295z"/>
	<path fill="#FFFFFF" d="M-352.775,131.818h-10.527v-7.146h-8.071l13.335-10.668l13.335,10.668h-8.071V131.818z M-362.303,130.818
		h8.527v-7.146h6.221l-10.484-8.387l-10.484,8.387h6.221V130.818z"/>
	<path fill="#FFFFFF" d="M-343.528,108.999h-29.023l3.382-3.382h22.26L-343.528,108.999z M-370.137,107.999h24.195l-1.383-1.382
		h-21.431L-370.137,107.999z"/>
	<path fill="#FFFFFF" d="M-241.75,131.954h-42.192v-3.748l5.406-10.812h7.312l8.379,8.379l8.378-8.379h7.312l5.405,10.812V131.954z
		 M-281.942,129.954h38.192v-1.275l-4.642-9.285h-5.248l-9.206,9.207l-9.207-9.207h-5.247l-4.643,9.285V129.954z"/>
	<rect x="-283.847" y="134.966" fill="#FFFFFF" width="42" height="1"/>
	<path fill="#FFFFFF" d="M-262.846,120.869l-12.512-12.511h9.499V98.31h6.024v10.049h9.499L-262.846,120.869z M-272.943,109.358
		l10.098,10.097l10.097-10.097h-8.085V99.31h-4.024v10.049H-272.943z"/>
	<path fill="#FFFFFF" d="M-145.642,131.954h-42.193v-3.748l5.405-10.812h11.667v5.024h8.049v-5.024h11.665l5.407,10.812V131.954z
		 M-185.835,129.954h38.193v-1.275l-4.644-9.285h-8.429v5.024h-12.049v-5.024h-8.431l-4.642,9.285V129.954z"/>
	<path fill="#FFFFFF" d="M-163.726,119.406h-6.025v-10.048h-9.498l12.51-12.512l12.512,12.512h-9.498V119.406z M-168.751,118.406
		h4.025v-10.048h8.084l-10.098-10.098l-10.096,10.098h8.084V118.406z"/>
	<rect x="-187.738" y="134.966" fill="#FFFFFF" width="42" height="1"/>
	<path fill="#FFFFFF" d="M-47.824,123.61c0.504-0.643,1.083-1.709,1.115-3.239c0.088-4.305-4.036-5.752-6.303-5.918h-6.92
		l-0.098-0.006c-0.28-0.606,0.155-1.278,0.15-1.278l-0.001,0.001c0.093-0.112,2.292-2.799,3.771-7.193
		c1.643-4.874-2.568-8.324-2.748-8.468l-0.245-0.146c-0.163-0.066-1.63-0.631-3.017,0.185c-1.06,0.624-1.701,1.831-1.907,3.591
		c-0.479,4.088-3.91,7.514-5.511,8.77c-0.226,0.176-0.406,0.317-0.528,0.424c-1.166,1.008-2.324,3.648-3.201,5.447
		c-0.586,1.201-2.196,3.135-3.023,3.848c-0.564,0.012-1.679,0.033-2.424,0.037c-0.283-0.896-1.113-1.957-2.102-1.957h-10.592
		c-1.221,0-2.214,0.993-2.214,2.213v20.534c0,1.221,0.993,2.214,2.214,2.214h10.592c1.077,0,1.975-0.774,2.171-1.795
		c0.381-0.016,0.728-0.372,0.927-0.346c0.275,0.3,0.896,1.466,2.414,2.08l0.179,0.073h0.193c0.121,0.001,7.119,0.021,13.465,0.021
		c3.202,0,5.984-0.005,7.119-0.021c2.052-0.026,3.118-0.927,3.651-1.677c1.033-1.453,1.056-3.106,0.867-4.093
		c1.343-1.235,1.5-3.462,1.533-4.386c0.03-0.827-0.171-1.416-0.442-2.011c0.753-0.683,1.518-2.021,1.622-3.722
		C-47.024,125.309-47.428,124.264-47.824,123.61z M-80.602,140.454c0,0.118-0.096,0.214-0.213,0.214h-10.592
		c-0.118,0-0.214-0.096-0.214-0.214V119.92c0-0.117,0.096-0.213,0.214-0.213h10.592c0.117,0,0.213,0.096,0.213,0.213V140.454z
		 M-49.727,122.727l-0.989,0.729l0.907,0.837c0.033,0.03,0.797,0.753,0.697,2.379c-0.114,1.856-1.374,2.648-1.387,2.654
		l-1.446,0.604l1.161,1.03c0.097,0.109,0.572,0.686,0.48,1.643c-0.079,0.817-0.378,2.481-1.248,3.146l-1.135,0.434l0.794,0.677
		c0.202,0.605,0.237,2.043-0.434,2.986c-0.391,0.55-1.061,0.823-2.048,0.836c-3.178,0.043-18.373,0.006-20.354,0.001
		c-0.629-0.267-1.263-0.594-1.47-0.76c-0.175-0.312-0.651-1.472-2.449-1.414v-16.845c1.056-0.007,2.752-0.044,2.752-0.044
		l0.344-0.008l0.266-0.216c0.115-0.094,2.833-2.723,3.817-4.739c0.941-1.932,1.91-4.119,2.71-4.811
		c0.105-0.091,0.262-0.212,0.455-0.364c1.643-1.287,5.688-5.195,6.264-10.11c0.127-1.08,0.446-1.805,0.925-2.094
		c0.408-0.246,0.905-0.16,1.13-0.101c0.592,0.535,3.046,2.999,1.98,6.161c-1.354,4.023-3.397,6.533-3.46,6.613
		c-0.509,0.713-1.113,2.303-0.153,3.742c0.436,0.654,1.189,0.82,1.748,0.76l6.78-0.003c0.182,0.015,4.45,0.396,4.38,3.88
		C-48.743,121.963-49.697,122.703-49.727,122.727z"/>
	<g>
		<g>
			<path fill="#FFFFFF" d="M48.763,108.705c-0.307-0.508-0.938-1.115-2.205-1.115H11.3l-1.711-3.695
				c-0.102-0.255-0.241-0.503-0.445-0.777c-0.122-0.159-0.254-0.307-0.47-0.501c-0.141-0.122-0.289-0.234-0.445-0.33l-0.086-0.049
				c-0.158-0.092-0.322-0.171-0.49-0.233l-0.112-0.037c-0.165-0.056-0.333-0.104-0.505-0.132l-0.241-0.027
				c-0.107-0.016-0.214-0.026-0.324-0.026h-6.916c-1.854,0-3.363,1.508-3.363,3.362c0,1.855,1.509,3.365,3.363,3.365h4.76
				l1.923,4.156c0.47,1.375,1.13,2.561,1.134,2.561l4.751,10.667c0.039,0.086,0.085,0.165,0.151,0.271l0.887,1.886
				c0.341,1.113,1.226,1.955,2.311,2.267l-0.011,0.145h23.083l1.058-0.019l-0.014-0.133c1.074-0.316,1.948-1.156,2.288-2.26
				l5.771-12.784C48.039,114.515,49.951,110.674,48.763,108.705z M45.93,114.411l-5.476,12.157l-0.152-0.039l-0.245,0.909
				c-0.172,0.642-0.754,1.09-1.477,1.09c-0.004,0-0.007-0.002-0.011-0.002l-1.091-0.031l0.005,0.051H17.435l-1.033-0.014
				c-0.666,0-1.251-0.451-1.425-1.094l-0.249-0.908l-0.148,0.038l-5.507-12.218c-0.007-0.012-0.625-1.121-1.038-2.347l-2.498-5.411
				h-5.982c-0.799,0-1.447-0.651-1.447-1.449s0.648-1.446,1.447-1.446l6.982,0.008l0.176,0.018c0.074,0.014,0.145,0.035,0.264,0.072
				c0.073,0.027,0.143,0.063,0.248,0.122c0.067,0.042,0.129,0.091,0.223,0.168c0.062,0.057,0.118,0.121,0.188,0.209
				c0.076,0.104,0.135,0.207,0.196,0.358l2.246,4.853h36.481c0.451,0,0.534,0.138,0.564,0.189
				C47.534,110.375,46.848,112.663,45.93,114.411z M20.081,132.394c-2.593,0-4.704,2.111-4.704,4.705s2.111,4.704,4.704,4.704
				c2.595,0,4.705-2.11,4.705-4.704S22.676,132.394,20.081,132.394z M20.081,140.104c-1.656,0-3.004-1.348-3.004-3.005
				s1.348-3.006,3.004-3.006c1.658,0,3.007,1.349,3.007,3.006S21.739,140.104,20.081,140.104z M36.393,132.394
				c-2.595,0-4.705,2.111-4.705,4.705s2.11,4.704,4.705,4.704c2.594,0,4.704-2.11,4.704-4.704S38.986,132.394,36.393,132.394z
				 M36.393,140.104c-1.658,0-3.006-1.348-3.006-3.005s1.348-3.006,3.006-3.006c1.657,0,3.006,1.349,3.006,3.006
				S38.05,140.104,36.393,140.104z"/>
		</g>
	</g>
	<path fill="#FFFFFF" d="M-563.976,216.36h-5.808v-15.426h28.852v-7.92l10.824,10.824l-10.824,10.824v-7.92h-23.043V216.36z
		 M-568.784,215.36h3.808v-9.617h25.043v6.506l8.41-8.41l-8.41-8.41v6.506h-28.852V215.36z"/>
	<path fill="#FFFFFF" d="M-558.667,236.952l-12.031-12.031l12.031-12.031v8.627h22.043v-9.618h6.808v16.427h-28.852V236.952z
		 M-567.87,224.921l7.203,7.203v-5.799h28.852v-12.427h-2.808v9.618h-26.043v-5.799L-567.87,224.921z"/>
	<path fill="#FFFFFF" d="M-721.333,211.529h-16.957l6.194-6.194c-2.744-2.565-6.3-3.973-10.07-3.973
		c-6.115,0-11.667,3.846-13.813,9.57l-0.176,0.468l-5.697-2.136l0.176-0.469c3.034-8.085,10.874-13.517,19.511-13.517
		c5.398,0,10.482,2.039,14.372,5.754l6.461-6.461V211.529z M-735.875,210.529h13.542v-13.543l-5.457,5.457l-0.354-0.354
		c-3.745-3.747-8.725-5.811-14.022-5.811c-8.055,0-15.383,4.963-18.393,12.402l3.826,1.435c2.413-5.854,8.204-9.754,14.567-9.754
		c4.204,0,8.159,1.639,11.137,4.613l0.354,0.354L-735.875,210.529z"/>
	<path fill="#FFFFFF" d="M-763.499,238.859v-18.664h18.664l-6.675,6.676c2.594,2.259,5.875,3.491,9.345,3.491
		c5.908,0,11.271-3.716,13.345-9.246l0.352-0.936l6.633,2.487l-0.352,0.937c-3.106,8.278-11.135,13.841-19.979,13.841
		c-5.363,0-10.424-1.967-14.36-5.559L-763.499,238.859z M-756.542,229.074l0.707,0.707c3.651,3.652,8.505,5.664,13.669,5.664
		c7.68,0,14.682-4.628,17.73-11.616l-2.893-1.085c-2.595,5.792-8.436,9.618-14.838,9.618c-4.339,0-8.419-1.69-11.49-4.76
		l-0.708-0.707l4.7-4.7h-11.835v11.836L-756.542,229.074z"/>
	<path fill="#FFFFFF" d="M-449.587,227.486h-19.064v-13.041h-9.239l12.847-12.848l12.848,12.848h-9.239v5.825h4.63L-449.587,227.486
		z M-466.651,225.486h12.235l-3.216-3.216h-5.802v-9.825h6.411l-8.02-8.02l-8.019,8.02h6.411V225.486z"/>
	<path fill="#FFFFFF" d="M-442.177,229.802l-11.64-11.64h8.532v-6.825h-4.924l-6.217-6.216h17.357v13.041h8.532L-442.177,229.802z
		 M-451.403,219.162l9.226,9.226l9.227-9.226h-7.118v-13.041h-13.943l4.217,4.216h5.51v8.825H-451.403z"/>
	<path fill="#FFFFFF" d="M-636.749,238.526v-8.992c-4.917-0.153-8.749-1.461-11.69-3.984c-2.745-2.352-4.188-5.236-5.583-8.026
		c-2.363-4.727-4.069-8.14-11.977-8.14h-1v-7.042h1c5.401,0,9.552,1.309,12.69,4c2.745,2.352,4.188,5.236,5.583,8.026
		c2.259,4.521,3.919,7.84,10.977,8.121v-13.086c-4.871,0.194-6.88,1.819-8.198,3.41l-0.972,1.175l-0.69-1.36
		c-0.718-1.418-1.529-2.932-2.588-4.4l-0.51-0.707l0.63-0.602c0.206-0.196,0.417-0.388,0.637-0.577
		c2.942-2.523,6.773-3.831,11.69-3.984v-8.992l12.498,12.497l-10.083,10.084l10.083,10.083L-636.749,238.526z M-664.999,207.401
		c8.305,0.305,10.378,4.451,12.765,9.225c1.308,2.615,2.659,5.316,5.097,7.405c2.76,2.368,6.485,3.519,11.388,3.519h1v6.148
		l7.669-7.669l-7.669-7.669v6.148h-1c-9.145,0-11.286-4.283-13.765-9.243c-1.308-2.615-2.659-5.316-5.097-7.405
		c-2.569-2.204-5.975-3.354-10.388-3.502V207.401z M-635.749,207.384h1v6.148l7.669-7.67l-7.669-7.669v6.148h-1
		c-4.859,0-8.562,1.13-11.314,3.455c0.6,0.898,1.117,1.796,1.585,2.67C-643.188,208.344-640.119,207.384-635.749,207.384z"/>
	<path fill="#FFFFFF" d="M-665.999,229.05h-0.5v-6.041h0.5c4.621,0,7.486-1.08,9.583-3.612l0.487-0.587l0.344,0.681
		c0.726,1.432,1.546,2.964,2.629,4.467l0.253,0.352l-0.312,0.301c-0.2,0.192-0.406,0.379-0.62,0.562
		C-656.678,227.781-660.722,229.05-665.999,229.05z M-665.499,224.005v4.041c4.783-0.077,8.454-1.268,11.213-3.635
		c0.09-0.076,0.177-0.152,0.263-0.23c-0.839-1.211-1.518-2.425-2.12-3.586C-658.298,222.862-661.232,223.929-665.499,224.005z"/>
	<g>
		<path fill="#FFFFFF" d="M203.649,222.804c0.372,0,0.725,0.068,1.065,0.164v-25.664c0-0.553-0.447-1-1-1s-1,0.447-1,1v25.624
			C203.016,222.854,203.325,222.804,203.649,222.804z"/>
		<path fill="#FFFFFF" d="M203.649,230.674c-0.324,0-0.634-0.05-0.935-0.124v4.754c0,0.553,0.447,1,1,1s1-0.447,1-1v-4.794
			C204.374,230.605,204.021,230.674,203.649,230.674z"/>
	</g>
	<g>
		<path fill="#FFFFFF" d="M217.771,203.368c0.372,0,0.725,0.068,1.065,0.164v-6.229c0-0.553-0.447-1-1-1s-1,0.447-1,1v6.188
			C217.137,203.418,217.446,203.368,217.771,203.368z"/>
		<path fill="#FFFFFF" d="M217.771,211.238c-0.324,0-0.634-0.05-0.935-0.124v24.189c0,0.553,0.447,1,1,1s1-0.447,1-1v-24.229
			C218.495,211.17,218.143,211.238,217.771,211.238z"/>
	</g>
	<g>
		<path fill="#FFFFFF" d="M231.892,217.304c0.372,0,0.725,0.068,1.065,0.164v-20.164c0-0.553-0.447-1-1-1s-1,0.447-1,1v20.124
			C231.258,217.354,231.567,217.304,231.892,217.304z"/>
		<path fill="#FFFFFF" d="M231.892,225.174c-0.324,0-0.634-0.05-0.935-0.124v10.254c0,0.553,0.447,1,1,1s1-0.447,1-1V225.01
			C232.616,225.105,232.264,225.174,231.892,225.174z"/>
	</g>
	<path fill="#FFFFFF" d="M203.649,231.174c-2.445,0-4.435-1.989-4.435-4.435s1.989-4.436,4.435-4.436s4.436,1.99,4.436,4.436
		S206.095,231.174,203.649,231.174z M203.649,223.304c-1.894,0-3.435,1.541-3.435,3.436c0,1.894,1.541,3.435,3.435,3.435
		c1.895,0,3.436-1.541,3.436-3.435C207.085,224.845,205.544,223.304,203.649,223.304z"/>
	<path fill="#FFFFFF" d="M217.771,211.738c-2.445,0-4.435-1.989-4.435-4.435s1.989-4.436,4.435-4.436s4.436,1.99,4.436,4.436
		S220.216,211.738,217.771,211.738z M217.771,203.868c-1.894,0-3.435,1.541-3.435,3.436c0,1.894,1.541,3.435,3.435,3.435
		c1.895,0,3.436-1.541,3.436-3.435C221.206,205.409,219.665,203.868,217.771,203.868z"/>
	<path fill="#FFFFFF" d="M231.892,225.674c-2.445,0-4.435-1.989-4.435-4.435s1.989-4.436,4.435-4.436s4.436,1.99,4.436,4.436
		S234.337,225.674,231.892,225.674z M231.892,217.804c-1.894,0-3.435,1.541-3.435,3.436c0,1.894,1.541,3.435,3.435,3.435
		c1.895,0,3.436-1.541,3.436-3.435C235.327,219.345,233.786,217.804,231.892,217.804z"/>
	<g>
		<path fill="#FFFFFF" d="M115.05,202.182c0,0.372-0.068,0.725-0.164,1.065h25.664c0.553,0,1-0.447,1-1s-0.447-1-1-1h-25.625
			C114.999,201.548,115.05,201.857,115.05,202.182z"/>
		<path fill="#FFFFFF" d="M107.179,202.182c0-0.324,0.051-0.634,0.125-0.935h-4.754c-0.553,0-1,0.447-1,1s0.447,1,1,1h4.793
			C107.247,202.906,107.179,202.554,107.179,202.182z"/>
	</g>
	<g>
		<path fill="#FFFFFF" d="M134.485,216.304c0,0.371-0.068,0.725-0.164,1.064h6.229c0.553,0,1-0.447,1-1s-0.447-1-1-1h-6.189
			C134.435,215.669,134.485,215.979,134.485,216.304z"/>
		<path fill="#FFFFFF" d="M126.614,216.304c0-0.324,0.051-0.635,0.125-0.936H102.55c-0.553,0-1,0.447-1,1s0.447,1,1,1h24.229
			C126.683,217.028,126.614,216.675,126.614,216.304z"/>
	</g>
	<g>
		<path fill="#FFFFFF" d="M120.55,230.425c0,0.371-0.068,0.725-0.164,1.064h20.164c0.553,0,1-0.447,1-1s-0.447-1-1-1h-20.125
			C120.499,229.79,120.55,230.101,120.55,230.425z"/>
		<path fill="#FFFFFF" d="M112.679,230.425c0-0.324,0.051-0.635,0.125-0.936H102.55c-0.553,0-1,0.447-1,1s0.447,1,1,1h10.293
			C112.747,231.149,112.679,230.796,112.679,230.425z"/>
	</g>
	<path fill="#FFFFFF" d="M111.114,206.617c-2.445,0-4.436-1.99-4.436-4.436s1.99-4.435,4.436-4.435s4.436,1.989,4.436,4.435
		S113.56,206.617,111.114,206.617z M111.114,198.747c-1.895,0-3.436,1.541-3.436,3.435c0,1.895,1.541,3.436,3.436,3.436
		s3.436-1.541,3.436-3.436C114.55,200.288,113.009,198.747,111.114,198.747z"/>
	<path fill="#FFFFFF" d="M130.55,220.739c-2.445,0-4.436-1.99-4.436-4.436s1.99-4.436,4.436-4.436s4.436,1.99,4.436,4.436
		S132.995,220.739,130.55,220.739z M130.55,212.868c-1.895,0-3.436,1.541-3.436,3.436s1.541,3.436,3.436,3.436
		s3.436-1.541,3.436-3.436S132.444,212.868,130.55,212.868z"/>
	<path fill="#FFFFFF" d="M116.614,234.86c-2.445,0-4.436-1.99-4.436-4.436s1.99-4.436,4.436-4.436s4.436,1.99,4.436,4.436
		S119.06,234.86,116.614,234.86z M116.614,226.989c-1.895,0-3.436,1.541-3.436,3.436s1.541,3.436,3.436,3.436
		s3.436-1.541,3.436-3.436S118.509,226.989,116.614,226.989z"/>
	<path fill="#FFFFFF" d="M46.231,196.936c-3.748-3.749-9.826-3.749-13.576,0l-9.256,9.257L7.97,221.62l-3.085,3.087
		c-2.897,2.899-2.897,7.593,0,10.494c2.898,2.896,7.594,2.896,10.49,0l12.478-12.476l6.038-6.039l5.949-5.951
		c1.997-2,1.997-5.233,0-7.231c-1.995-1.996-5.229-1.996-7.229,0l-17.982,17.987l1.232,1.234l17.985-17.987
		c0.659-0.658,1.516-0.983,2.382-0.983c0.865,0,1.719,0.325,2.378,0.983c0.66,0.66,0.986,1.518,0.987,2.379
		c-0.001,0.865-0.327,1.724-0.987,2.384l-5.95,5.951l-6.038,6.039l-12.476,12.475c-1.109,1.107-2.556,1.657-4.011,1.66
		c-1.456-0.003-2.9-0.552-4.013-1.66c-1.108-1.109-1.659-2.558-1.66-4.013c0.001-1.454,0.552-2.902,1.66-4.013l3.086-3.085
		l15.429-15.429l9.258-9.256c1.533-1.538,3.541-2.301,5.553-2.301c2.013,0,4.021,0.767,5.555,2.301
		c1.535,1.535,2.299,3.54,2.299,5.553c0,2.015-0.764,4.021-2.299,5.555l-21.291,21.293l1.233,1.236l21.291-21.296
		C49.981,206.765,49.981,200.686,46.231,196.936z"/>
	<g>
		<path fill="#FFFFFF" d="M-248.596,235.221h-28.5c-2.022,0-3.667-1.645-3.667-3.666c0-2.022,1.645-3.668,3.667-3.668h9.968
			l1.072,1.859c0.761,1.317,1.932,2.072,3.212,2.072c1.281,0,2.449-0.755,3.206-2.071l1.073-1.86h9.969
			c2.021,0,3.666,1.646,3.666,3.668C-244.93,233.576-246.574,235.221-248.596,235.221z M-277.096,228.887
			c-1.471,0-2.667,1.197-2.667,2.668c0,1.47,1.196,2.666,2.667,2.666h28.5c1.47,0,2.666-1.196,2.666-2.666
			c0-1.471-1.196-2.668-2.666-2.668h-9.391l-0.785,1.359c-0.939,1.635-2.424,2.572-4.072,2.572c-1.647,0-3.134-0.938-4.077-2.572
			l-0.785-1.359H-277.096z"/>
	</g>
	<path fill="#FFFFFF" d="M-262.845,227.942c-0.959,0-1.852-0.595-2.45-1.632l-8.853-15.329c-0.599-1.037-0.667-2.108-0.188-2.938
		c0.479-0.83,1.44-1.306,2.637-1.306h2.535v-6.307c0-2.506,2.039-4.545,4.545-4.545h3.547c2.505,0,4.543,2.039,4.543,4.545v6.307
		h2.533c1.196,0,2.158,0.476,2.637,1.305c0.479,0.83,0.411,1.9-0.187,2.938l-8.851,15.33
		C-260.994,227.348-261.887,227.942-262.845,227.942z M-271.698,208.738c-0.449,0-0.796,0.117-0.905,0.306
		c-0.108,0.188-0.036,0.548,0.188,0.938l8.853,15.329c0.225,0.39,0.5,0.632,0.718,0.632c0.217,0,0.492-0.242,0.717-0.632
		l8.851-15.329c0.225-0.39,0.297-0.749,0.188-0.938s-0.456-0.306-0.905-0.306h-4.533v-8.307c0-1.403-1.141-2.545-2.543-2.545h-3.547
		c-1.403,0-2.545,1.142-2.545,2.545v8.307H-271.698z"/>
	<g>
		<path fill="#FFFFFF" d="M-152.487,235.221h-28.502c-2.021,0-3.665-1.645-3.665-3.666c0-2.022,1.645-3.668,3.665-3.668h7.278
			l0.119,0.331c0.773,2.153,2.815,3.601,5.08,3.601h3.543c2.268,0,4.311-1.447,5.083-3.601l0.119-0.331h7.279
			c2.021,0,3.666,1.646,3.666,3.668C-148.821,233.576-150.466,235.221-152.487,235.221z M-180.989,228.887
			c-1.47,0-2.665,1.197-2.665,2.668c0,1.47,1.195,2.666,2.665,2.666h28.502c1.47,0,2.666-1.196,2.666-2.666
			c0-1.471-1.196-2.668-2.666-2.668h-6.586c-0.999,2.366-3.325,3.932-5.896,3.932h-3.543c-2.567,0-4.893-1.565-5.892-3.932H-180.989
			z"/>
	</g>
	<path fill="#FFFFFF" d="M-164.966,227.942h-3.547c-2.506,0-4.544-2.038-4.544-4.544v-6.308h-2.533
		c-1.196,0-2.157-0.476-2.637-1.306s-0.411-1.9,0.188-2.937l8.851-15.33c0.598-1.036,1.49-1.631,2.449-1.631
		c0.958,0,1.851,0.595,2.449,1.631l8.852,15.33c0.599,1.035,0.668,2.105,0.189,2.936s-1.44,1.307-2.639,1.307h-2.535v6.308
		C-160.423,225.904-162.461,227.942-164.966,227.942z M-166.739,197.888c-0.218,0-0.492,0.241-0.717,0.63l-8.851,15.331
		c-0.225,0.389-0.297,0.748-0.188,0.937c0.108,0.188,0.455,0.306,0.904,0.306h4.533v8.308c0,1.402,1.142,2.544,2.544,2.544h3.547
		c1.402,0,2.543-1.142,2.543-2.544v-8.308h4.535c0.45,0,0.798-0.117,0.906-0.306s0.036-0.547-0.188-0.936l-8.853-15.331
		C-166.247,198.129-166.521,197.888-166.739,197.888z"/>
	<path fill="#FFFFFF" d="M-342.538,237.205C-342.539,237.205-342.538,237.205-342.538,237.205c-1.143,0-1.793-0.591-1.911-0.71
		l-12.927-12.924l3.114-3.265c0.253-0.254,0.977-0.979,4.445-1.918l0.56-0.151l11.533,11.531c0.761,0.762,1.496,2.904-1.164,5.562
		C-340.132,236.574-341.36,237.205-342.538,237.205z M-343.036,235.079c0.004,0,0.182,0.126,0.498,0.126
		c0.61,0,1.405-0.458,2.236-1.288c1.834-1.833,1.171-2.727,1.163-2.734l-10.71-10.709c-2.341,0.677-2.891,1.139-2.981,1.229
		l-1.75,1.835L-343.036,235.079C-343.036,235.08-343.037,235.079-343.036,235.079z"/>
	<path fill="#FFFFFF" d="M-363.53,214.729l-8.197-8.197l-3.542-1.521l-4.328-6.616l3.775-3.775l6.616,4.33l1.52,3.543l8.213,8.212
		l-0.486,0.688c-0.372,0.525-0.726,0.959-1.081,1.323l-0.089,0.081L-363.53,214.729z M-373.926,203.412l3.341,1.435l7.199,7.199
		l0.953-0.768c0.109-0.113,0.22-0.237,0.331-0.372l-7.271-7.271l-1.434-3.342l-4.751-3.109l-1.478,1.477L-373.926,203.412z"/>
	<path fill="#FFFFFF" d="M-347.071,198.296c1.126,0,2.188,0.261,3.037,0.56l-4.115,1.794l-0.542,0.237l-0.055,0.589l-0.156,1.732
		l-0.022,0.245l0.094,0.228l1.429,3.456l0.389,0.94l0.934-0.404l5.079-2.202c-0.807,1.566-2.168,3.564-4.192,4.556l-0.842,0.413
		l0.357,0.867l1.237,2.997c-3.005,0.437-9.969,1.65-12.07,3.752l-14.083,14.766c-0.172,0.141-1.259,0.989-2.521,0.989
		c-0.776,0-1.472-0.317-2.125-0.972c-1.986-1.985-0.372-4.175-0.01-4.614l16.305-13.112l0.042-0.034l0.039-0.038
		c3.191-3.19,4.563-8.683,5.383-11.964c0.204-0.819,0.382-1.526,0.533-1.983c0.603-1.81,0.89-1.871,4.396-2.635l0.069-0.015
		C-348.033,198.346-347.559,198.296-347.071,198.296L-347.071,198.296 M-372.849,232.991c0.68,0,1.319-0.265,1.799-0.745
		c0.991-0.992,0.991-2.607,0-3.599c-0.479-0.481-1.119-0.746-1.799-0.746s-1.319,0.265-1.8,0.746
		c-0.991,0.991-0.992,2.605-0.001,3.599C-374.169,232.727-373.529,232.991-372.849,232.991 M-347.071,197.296
		c-0.53,0-1.075,0.051-1.624,0.17c-3.625,0.789-4.414,0.946-5.201,3.312c-0.788,2.363-1.892,9.772-5.676,13.556l-16.378,13.172
		c0,0-2.841,3.198,0.003,6.041c0.948,0.948,1.937,1.265,2.832,1.265c1.789,0,3.209-1.262,3.209-1.262l14.118-14.803
		c2.365-2.364,12.768-3.625,12.768-3.625l-1.732-4.196c4.029-1.975,5.635-7.359,5.635-7.359l-7.36,3.189l-1.428-3.456l0.156-1.732
		l6.148-2.682C-341.602,198.885-344.1,197.296-347.071,197.296L-347.071,197.296z M-372.849,231.991
		c-0.396,0-0.792-0.15-1.094-0.452c-0.603-0.604-0.603-1.581,0.001-2.185c0.302-0.303,0.698-0.453,1.093-0.453
		c0.396,0,0.791,0.15,1.092,0.452c0.604,0.604,0.604,1.581,0,2.186C-372.058,231.841-372.454,231.991-372.849,231.991
		L-372.849,231.991z"/>
	<path fill="#FFFFFF" d="M-76.019,195.265c3.534,0,6.857,1.377,9.356,3.877l1.474,1.474l-8.485,8.487l-10.792-10.793
		C-82.095,196.339-79.132,195.265-76.019,195.265 M-76.019,194.265c-3.571,0-7.142,1.336-9.9,4.006l12.245,12.246l9.899-9.901
		l-2.181-2.181C-68.734,195.654-72.377,194.265-76.019,194.265L-76.019,194.265z"/>
	<path fill="#FFFFFF" d="M-62.433,204.785l8.486,8.487c2.312,2.312,3.585,5.386,3.585,8.655s-1.272,6.343-3.584,8.653l-1.008,1.007
		c-2.312,2.312-5.386,3.585-8.654,3.585c-3.268,0-6.341-1.273-8.652-3.585l-8.487-8.487L-62.433,204.785 M-62.433,201.957
		l-21.143,21.144l9.901,9.901c2.78,2.78,6.423,4.171,10.066,4.171s7.287-1.391,10.068-4.171l1.007-1.006
		c5.562-5.56,5.562-14.577,0-20.138L-62.433,201.957L-62.433,201.957z"/>
	<path fill="#FFFFFF" d="M-87.223,201.066l10.792,10.792l-8.487,8.486l-1.473-1.474C-91.227,214.035-91.519,206.253-87.223,201.066
		 M-87.262,199.613c-5.395,5.572-5.342,14.459,0.164,19.965l2.18,2.181l9.901-9.9L-87.262,199.613L-87.262,199.613z"/>
	<path fill="#FFFFFF" d="M-819.417,232.245h-38.986c-1.517,0-2.75-1.329-2.75-2.962v-16.295h44.483v16.295
		C-816.669,230.916-817.901,232.245-819.417,232.245z M-860.152,213.988v15.295c0,1.082,0.785,1.962,1.75,1.962h38.986
		c0.963,0,1.748-0.88,1.748-1.962v-15.295H-860.152z"/>
	<path fill="#FFFFFF" d="M-822.729,227.372h-12.931c-0.586,0-1.063-0.499-1.063-1.113v-3.691c0-0.615,0.477-1.115,1.063-1.115
		h12.931c0.585,0,1.062,0.5,1.062,1.115v3.691C-821.667,226.873-822.144,227.372-822.729,227.372z M-835.66,222.452
		c-0.022,0-0.063,0.044-0.063,0.115v3.691c0,0.073,0.042,0.113,0.063,0.113h12.931c0.021,0,0.062-0.04,0.062-0.113v-3.691
		c0-0.071-0.04-0.115-0.062-0.115H-835.66z"/>
	<path fill="#FFFFFF" d="M-816.669,209.682h-44.483v-5.424c0-1.633,1.233-2.962,2.75-2.962h38.986c1.515,0,2.748,1.329,2.748,2.962
		V209.682z M-860.152,208.682h42.483v-4.424c0-1.082-0.784-1.962-1.748-1.962h-38.986c-0.965,0-1.75,0.88-1.75,1.962V208.682z"/>
	<path fill="#FFFFFF" d="M-828.763,332.484h-20.234c-1.292,0-2.343-1.051-2.343-2.343v-19.498l-2.386,2.463
		c-0.862,0.893-2.421,0.919-3.313,0.06l-5.958-5.757c-0.449-0.433-0.702-1.017-0.713-1.645c-0.011-0.627,0.222-1.22,0.656-1.668
		l9.366-9.696c1.23-1.272,1.703-1.272,1.93-1.272h5.898c1.535,0,1.783,0.107,2.058,0.393l0.295,0.307l-0.014,0.432
		c0.001,2.424,1.909,4.11,4.641,4.11c2.731,0,4.639-1.687,4.639-4.102v-0.403l0.282-0.344c0.274-0.285,0.523-0.393,2.058-0.393
		h5.898c0.228,0,0.703,0,1.93,1.272l9.367,9.696c0.434,0.448,0.667,1.041,0.656,1.668c-0.011,0.627-0.264,1.212-0.713,1.646
		l-5.958,5.755c-0.438,0.423-1.016,0.656-1.626,0.656l0,0c-0.633,0-1.248-0.261-1.687-0.714l-2.38-2.464l-0.006,19.498
		C-826.42,331.434-827.471,332.484-828.763,332.484z M-850.731,307.821c0.67,0,1.392,0.527,1.392,1.688v20.633
		c0,0.186,0.157,0.343,0.343,0.343h20.234c0.189,0,0.343-0.153,0.343-0.343v-20.633c0-1.16,0.721-1.688,1.391-1.688
		c0.304,0,0.771,0.106,1.261,0.613l3.172,3.283c0.168,0.174,0.31,0.178,0.486,0.009l5.958-5.755
		c0.087-0.085,0.102-0.188,0.103-0.241c0.001-0.054-0.01-0.157-0.095-0.245l-9.367-9.696c-0.303-0.313-0.574-0.545-0.729-0.661
		h-5.66c-0.15,0-0.286,0.002-0.407,0.005c-0.444,3.111-3.071,5.236-6.572,5.236c-3.526,0-6.166-2.155-6.582-5.237
		c-0.118-0.002-0.251-0.004-0.397-0.004h-5.66c-0.155,0.116-0.427,0.348-0.73,0.662l-9.366,9.695
		c-0.084,0.088-0.096,0.191-0.095,0.245s0.016,0.156,0.103,0.24l5.958,5.757c0.175,0.168,0.317,0.166,0.486-0.011l3.17-3.281
		C-851.501,307.928-851.035,307.821-850.731,307.821z"/>
	<path fill="#FFFFFF" d="M-739.237,333.407c-2.106,0-3.83-0.094-5.427-0.296c-1.417-0.179-2.645-0.75-3.833-1.302
		c-1.619-0.754-3.146-1.395-4.658-0.912c-0.232,0.074-0.458,0.185-0.696,0.303c-0.524,0.258-1.118,0.55-1.941,0.55l-0.107-0.002
		c-0.966-0.033-1.955-0.415-2.863-1.105c-1.655-1.258-2.724-3.263-2.724-5.106v-11.588c0-1.963,0.997-3.807,2.667-4.931
		c1.197-0.808,2.593-1.235,3.774-1.183c0.744,0.04,1.203,0.319,1.571,0.544c0.108,0.065,0.221,0.136,0.354,0.202
		c0.116,0.06,0.247,0.087,0.401,0.087c1.455,0,3.841-2.234,4.859-3.188l0.233-0.219c1.249-1.157,2.208-2.573,3.225-4.072
		c0.277-0.407,0.553-0.814,0.834-1.216c0.421-0.599,0.703-1.296,1.001-2.033c0.228-0.565,0.464-1.15,0.777-1.725
		c0.126-0.232,0.244-0.477,0.361-0.722c0.433-0.899,0.923-1.919,1.909-2.598c0.7-0.479,1.548-0.743,2.392-0.743
		c1.188,0,2.282,0.512,3.003,1.403c1.898,2.346,0.76,5.533-0.444,8.048c-0.294,0.616-0.672,1.205-1.038,1.773
		c-0.626,0.975-1.217,1.896-1.344,2.844c-0.072,0.537,0.013,0.701,0.014,0.703l0.319-0.05c0.64,0,1.294-0.038,1.951-0.075
		c0.698-0.039,1.396-0.078,2.082-0.078h7.93c2.31,0,4.136,1.825,4.136,4.069c0,1.643-0.977,3.061-2.381,3.703
		c0.51,0.68,0.812,1.523,0.812,2.437c0,1.864-1.259,3.439-2.972,3.92c0.417,0.639,0.66,1.401,0.66,2.22
		c0,2.179-1.721,3.963-3.874,4.064c0.361,0.608,0.569,1.318,0.569,2.075c0,2.244-1.825,4.069-4.068,4.069
		c-1.234,0-2.47,0.032-3.706,0.064C-736.729,333.375-737.983,333.407-739.237,333.407z M-752.001,328.716
		c1.598,0,2.997,0.65,4.349,1.28c1.097,0.51,2.132,0.991,3.24,1.131c1.512,0.191,3.156,0.28,5.176,0.28
		c1.236,0,2.474-0.032,3.711-0.064c1.253-0.032,2.506-0.064,3.757-0.064c1.141,0,2.068-0.929,2.068-2.069
		c0-1.142-0.928-2.07-2.068-2.07v-2h3.304c1.141,0,2.069-0.929,2.069-2.069s-0.928-2.069-2.069-2.069v-2h2.312
		c1.141,0,2.069-0.929,2.069-2.07c0-1.141-0.928-2.069-2.069-2.069v-2h1.568c1.141,0,2.07-0.929,2.07-2.07
		c0-1.141-0.929-2.069-2.07-2.069h-7.996c-0.648,0-1.309,0.038-1.969,0.075c-0.694,0.039-1.388,0.078-2.064,0.078l-0.353-0.004
		c-0.784-0.017-1.247-0.369-1.497-0.661c-0.446-0.521-0.599-1.258-0.466-2.254c0.186-1.389,0.927-2.543,1.644-3.658
		c0.347-0.541,0.675-1.052,0.916-1.556c0.95-1.985,1.887-4.452,0.693-5.928c-0.604-0.746-1.85-0.856-2.708-0.269
		c-0.546,0.376-0.883,1.075-1.239,1.815c-0.132,0.274-0.264,0.548-0.407,0.811c-0.259,0.475-0.463,0.981-0.68,1.518
		c-0.327,0.81-0.666,1.647-1.218,2.435c-0.275,0.392-0.545,0.789-0.816,1.188c-1.035,1.526-2.105,3.104-3.52,4.415l-0.227,0.212
		c-1.926,1.805-4.154,3.729-6.226,3.729c-0.471,0-0.911-0.102-1.307-0.303c-0.181-0.092-0.339-0.188-0.488-0.278
		c-0.302-0.184-0.408-0.242-0.637-0.254l-0.13-0.004c-0.73,0-1.636,0.316-2.421,0.847c-1.117,0.753-1.784,1.976-1.784,3.272v11.588
		c0,1.223,0.777,2.635,1.934,3.515c0.402,0.306,1.027,0.675,1.719,0.699c0.001,0,0.002,0,0.003,0c0.38,0,0.65-0.125,1.096-0.345
		c0.28-0.138,0.597-0.294,0.972-0.413C-753.186,328.809-752.594,328.716-752.001,328.716z"/>
	<path fill="#FFFFFF" d="M-431.207,408.378h-47.605c-0.276,0-0.5-0.224-0.5-0.5s0.224-0.5,0.5-0.5h47.605c0.276,0,0.5,0.224,0.5,0.5
		S-430.93,408.378-431.207,408.378z"/>
	<path fill="#FFFFFF" d="M-431.207,408.378c-0.12,0-0.24-0.043-0.335-0.129l-11.796-10.682c-0.205-0.186-0.221-0.502-0.035-0.707
		c0.186-0.203,0.502-0.22,0.706-0.035l11.796,10.682c0.205,0.186,0.221,0.502,0.035,0.707
		C-430.935,408.322-431.07,408.378-431.207,408.378z"/>
	<path fill="#FFFFFF" d="M-443.003,419.056c-0.136,0-0.272-0.056-0.371-0.164c-0.186-0.205-0.169-0.521,0.035-0.707l11.796-10.678
		c0.205-0.184,0.521-0.168,0.706,0.035c0.186,0.205,0.169,0.521-0.035,0.707l-11.796,10.678
		C-442.763,419.013-442.883,419.056-443.003,419.056z"/>
	<path fill="#FFFFFF" d="M-527.353,408.378h-47.605c-0.276,0-0.5-0.224-0.5-0.5s0.224-0.5,0.5-0.5h47.605c0.276,0,0.5,0.224,0.5,0.5
		S-527.077,408.378-527.353,408.378z"/>
	<path fill="#FFFFFF" d="M-574.958,408.378c-0.136,0-0.272-0.056-0.371-0.164c-0.186-0.205-0.17-0.521,0.035-0.707l11.796-10.682
		c0.205-0.185,0.521-0.168,0.706,0.035c0.186,0.205,0.17,0.521-0.035,0.707l-11.796,10.682
		C-574.719,408.335-574.839,408.378-574.958,408.378z"/>
	<path fill="#FFFFFF" d="M-563.162,419.056c-0.12,0-0.24-0.043-0.335-0.129l-11.796-10.678c-0.205-0.186-0.221-0.502-0.035-0.707
		c0.186-0.203,0.502-0.219,0.706-0.035l11.796,10.678c0.205,0.186,0.221,0.502,0.035,0.707
		C-562.89,419-563.026,419.056-563.162,419.056z"/>
	<path fill="#FFFFFF" d="M-275.995,408.38c-0.136,0-0.271-0.056-0.371-0.164c-0.185-0.205-0.169-0.521,0.035-0.707l25.452-23.047
		c0.204-0.183,0.52-0.169,0.707,0.035c0.185,0.205,0.169,0.521-0.035,0.707l-25.452,23.047
		C-275.755,408.337-275.875,408.38-275.995,408.38z"/>
	<path fill="#FFFFFF" d="M-250.543,431.419c-0.12,0-0.24-0.043-0.336-0.129l-25.452-23.039c-0.204-0.186-0.22-0.502-0.035-0.707
		c0.187-0.203,0.503-0.218,0.707-0.035l25.452,23.039c0.204,0.186,0.22,0.502,0.035,0.707
		C-250.271,431.363-250.407,431.419-250.543,431.419z"/>
	<path fill="#FFFFFF" d="M-346.051,408.38c-0.119,0-0.24-0.043-0.336-0.129l-25.452-23.047c-0.205-0.186-0.221-0.502-0.035-0.707
		c0.186-0.204,0.502-0.219,0.707-0.035l25.452,23.047c0.205,0.186,0.221,0.502,0.035,0.707
		C-345.779,408.324-345.914,408.38-346.051,408.38z"/>
	<path fill="#FFFFFF" d="M-371.503,431.419c-0.137,0-0.271-0.056-0.371-0.164c-0.186-0.205-0.169-0.521,0.035-0.707l25.452-23.039
		c0.205-0.184,0.521-0.168,0.707,0.035c0.186,0.205,0.169,0.521-0.035,0.707l-25.452,23.039
		C-371.263,431.376-371.384,431.419-371.503,431.419z"/>
	<path fill="#FFFFFF" d="M-83.117,408.88c-0.272,0-0.544-0.11-0.741-0.329c-0.371-0.409-0.34-1.041,0.07-1.412l25.452-23.047
		c0.409-0.372,1.042-0.341,1.412,0.07c0.371,0.409,0.34,1.041-0.07,1.412l-25.452,23.047
		C-82.638,408.795-82.878,408.88-83.117,408.88z"/>
	<path fill="#FFFFFF" d="M-57.665,431.919c-0.239,0-0.479-0.085-0.671-0.259l-25.452-23.039c-0.409-0.37-0.441-1.003-0.07-1.412
		c0.37-0.409,1.003-0.442,1.412-0.07l25.452,23.039c0.409,0.37,0.441,1.003,0.07,1.412
		C-57.121,431.808-57.393,431.919-57.665,431.919z"/>
	<path fill="#FFFFFF" d="M-155.014,408.88c-0.239,0-0.479-0.085-0.671-0.259l-25.452-23.047c-0.41-0.371-0.441-1.003-0.07-1.412
		c0.37-0.411,1.003-0.442,1.412-0.07l25.452,23.047c0.41,0.371,0.441,1.003,0.07,1.412
		C-154.47,408.77-154.741,408.88-155.014,408.88z"/>
	<path fill="#FFFFFF" d="M-180.466,431.919c-0.272,0-0.544-0.111-0.741-0.329c-0.371-0.409-0.339-1.042,0.07-1.412l25.452-23.039
		c0.409-0.372,1.042-0.339,1.412,0.07c0.371,0.409,0.339,1.042-0.07,1.412l-25.452,23.039
		C-179.986,431.834-180.227,431.919-180.466,431.919z"/>
	<g>
		<g>
			<g>
				<polygon fill="#FFFFFF" points="228.28,305.856 218.413,305.856 218.413,295.988 220.119,295.988 220.119,304.149 
					228.28,304.149 				"/>
			</g>
			<g>
				<path fill="#FFFFFF" d="M229.286,335.154h-28.753v-40.171h19.328l9.425,9.425V335.154z M202.24,333.447h25.339v-28.333
					l-8.425-8.424H202.24V333.447z"/>
			</g>
		</g>
		<g>
			<g>
				<polygon fill="#FFFFFF" points="234.29,299.546 224.422,299.546 224.422,289.677 226.129,289.677 226.129,297.839 
					234.29,297.839 				"/>
			</g>
			<g>
				<polygon fill="#FFFFFF" points="235.294,328.845 228.28,328.845 228.28,327.138 233.587,327.138 233.587,298.804 
					225.164,290.381 208.249,290.381 208.249,295.837 206.542,295.837 206.542,288.674 225.87,288.674 235.294,298.097 				"/>
			</g>
		</g>
	</g>
	<g>
		<g>
			<g>
				<path fill="#FFFFFF" d="M140.271,302.668l-0.591-0.92c-2.562-3.994-6.434-7.046-10.9-8.591l-1.043-0.36l0.704-0.849
					c1.007-1.213,2.243-2.509,4.198-2.509c1.604,0,3.442,0.869,5.787,2.734c5.094,4.052,4.734,6.687,2.505,9.625L140.271,302.668z
					 M130.339,292.112c4,1.615,7.493,4.371,10.006,7.893c1.022-1.566,1.3-3.32-2.869-6.636c-2.031-1.617-3.613-2.403-4.836-2.403
					C131.754,290.966,131.067,291.376,130.339,292.112z"/>
			</g>
			<g>
				<path fill="#FFFFFF" d="M101.861,302.668l-0.661-0.871c-2.227-2.937-2.586-5.571,2.505-9.623
					c2.345-1.865,4.184-2.734,5.787-2.734c1.955,0,3.194,1.296,4.2,2.509l0.703,0.849l-1.042,0.36
					c-4.466,1.545-8.338,4.596-10.902,8.592L101.861,302.668z M109.492,290.966c-1.222,0-2.804,0.786-4.836,2.403
					c-4.167,3.315-3.891,5.069-2.868,6.636c2.515-3.522,6.008-6.277,10.005-7.893C111.065,291.376,110.378,290.966,109.492,290.966z
					"/>
			</g>
		</g>
		<g>
			<g>
				
					<rect x="105.908" y="328.354" transform="matrix(0.7074 0.7068 -0.7068 0.7074 265.6168 21.6387)" fill="#FFFFFF" width="1.527" height="6.597"/>
			</g>
			<g>
				
					<rect x="131.884" y="330.973" transform="matrix(0.7072 0.707 -0.707 0.7072 274.1688 1.4762)" fill="#FFFFFF" width="6.836" height="1.526"/>
			</g>
		</g>
		<g>
			<g>
				<path fill="#FFFFFF" d="M121.066,334.748c-11.605,0-21.045-9.44-21.045-21.045s9.439-21.045,21.045-21.045
					c11.604,0,21.045,9.44,21.045,21.045S132.671,334.748,121.066,334.748z M121.066,294.185c-10.763,0-19.519,8.756-19.519,19.519
					s8.756,19.519,19.519,19.519s19.519-8.756,19.519-19.519S131.829,294.185,121.066,294.185z"/>
			</g>
			<g>
				<polygon fill="#FFFFFF" points="122.068,315.608 108.823,315.608 108.823,314.082 120.542,314.082 120.542,299.115 
					122.068,299.115 				"/>
			</g>
		</g>
	</g>
	<g>
		<g>
			<path fill="#FFFFFF" d="M26.243,334.323c-11.336,0-20.558-9.222-20.558-20.556h1.466c0,10.525,8.564,19.09,19.092,19.09
				c10.524,0,19.089-8.564,19.089-19.09s-8.564-19.089-19.089-19.089v-1.466c11.333,0,20.555,9.221,20.555,20.555
				S37.576,334.323,26.243,334.323z"/>
		</g>
		<g>
			<polygon fill="#FFFFFF" points="26.302,299.446 16.962,294.055 26.302,288.663 			"/>
		</g>
		<g>
			<polygon fill="#FFFFFF" points="34.044,324.492 24.628,315.205 24.628,304.317 26.094,304.317 26.094,314.593 35.074,323.447 			
				"/>
		</g>
	</g>
	<g>
		<g>
			<path fill="#FFFFFF" d="M-70.059,334.552c-6.132,0-11.896-2.389-16.231-6.724c-4.335-4.335-6.723-10.098-6.723-16.229
				s2.388-11.895,6.723-16.229c4.336-4.335,10.1-6.724,16.231-6.724c6.131,0,11.894,2.389,16.229,6.724
				c4.337,4.335,6.724,10.098,6.724,16.229s-2.387,11.895-6.724,16.229C-58.165,332.163-63.928,334.552-70.059,334.552z
				 M-70.059,290.282c-5.693,0-11.047,2.217-15.073,6.244c-4.025,4.025-6.244,9.378-6.244,15.072c0,5.693,2.219,11.047,6.244,15.072
				c4.026,4.027,9.38,6.244,15.073,6.244c5.692,0,11.046-2.217,15.071-6.244c4.028-4.025,6.244-9.379,6.244-15.072
				c0-5.694-2.216-11.047-6.244-15.072C-59.013,292.499-64.366,290.282-70.059,290.282z"/>
		</g>
		<g>
			
				<rect x="-92.194" y="310.78" transform="matrix(0.7071 0.7071 -0.7071 0.7071 199.8109 140.8005)" fill="#FFFFFF" width="44.268" height="1.637"/>
		</g>
	</g>
	<g>
		<g>
			<path fill="#FFFFFF" d="M-645.831,326.339c-12.037,0-21.574-12.592-21.974-13.129l-0.301-0.403l0.301-0.402
				c0.4-0.537,9.937-13.131,21.974-13.131s21.573,12.594,21.972,13.131l0.301,0.402l-0.301,0.403
				C-624.258,313.745-633.794,326.339-645.831,326.339z M-666.406,312.807c1.737,2.153,10.386,12.185,20.575,12.185
				c10.198,0,18.837-10.029,20.574-12.185c-1.737-2.153-10.386-12.186-20.574-12.186
				C-656.029,300.621-664.67,310.652-666.406,312.807z"/>
		</g>
		<g>
			<path fill="#FFFFFF" d="M-645.831,322.899c-5.566,0-10.095-4.527-10.095-10.093c0-5.566,4.528-10.094,10.095-10.094
				c5.565,0,10.093,4.527,10.093,10.094C-635.738,318.372-640.266,322.899-645.831,322.899z M-645.831,304.061
				c-4.822,0-8.747,3.924-8.747,8.746c0,4.823,3.925,8.745,8.747,8.745s8.745-3.922,8.745-8.745
				C-637.086,307.984-641.009,304.061-645.831,304.061z"/>
		</g>
	</g>
	<g>
		<polygon fill="#FFFFFF" points="-533.17,334.339 -568.095,334.339 -568.095,310.411 -566.514,310.411 -566.514,332.758 
			-534.751,332.758 -534.751,310.411 -533.17,310.411 		"/>
	</g>
	<g>
		<polygon fill="#FFFFFF" points="-572.479,312.282 -573.591,311.158 -550.632,288.487 -527.674,311.158 -528.786,312.282 
			-550.632,290.71 		"/>
	</g>
	<g>
		<path fill="#FFFFFF" d="M-543.547,333.549h-1.581v-17.354c0-1.065-0.868-1.933-1.933-1.933h-7.145
			c-1.065,0-1.933,0.867-1.933,1.933v17.354h-1.58v-17.354c0-1.937,1.576-3.513,3.513-3.513h7.145c1.938,0,3.513,1.576,3.513,3.513
			V333.549z"/>
	</g>
	<g>
		<g>
			
				<rect x="-461.126" y="321.47" transform="matrix(0.7071 0.7071 -0.7071 0.7071 94.3038 416.9011)" fill="#FFFFFF" width="10.116" height="1.619"/>
		</g>
		<g>
			<path fill="#FFFFFF" d="M-464.003,308.042c-1.854,0-3.362-1.51-3.362-3.363s1.508-3.36,3.362-3.36
				c1.854,0,3.362,1.507,3.362,3.36S-462.149,308.042-464.003,308.042z M-464.003,302.938c-0.961,0-1.743,0.782-1.743,1.741
				c0,0.962,0.782,1.743,1.743,1.743c0.96,0,1.742-0.781,1.742-1.743C-462.261,303.72-463.042,302.938-464.003,302.938z"/>
		</g>
		<g>
			<g>
				<rect x="-431.63" y="323.964" fill="#FFFFFF" width="1.619" height="4.438"/>
			</g>
			<g>
				<rect x="-477.278" y="325.659" fill="#FFFFFF" width="1.62" height="2.742"/>
			</g>
			<g>
				<path fill="#FFFFFF" d="M-477.278,327.649v-30.096h47.267v28.401l-17.628-18.095l-11.849,12.163l-5.181-5.317L-477.278,327.649z
					 M-475.658,299.174v24.494l10.989-11.283l5.181,5.317l11.849-12.164l16.009,16.434v-22.798H-475.658z"/>
			</g>
			<g>
				<path fill="#FFFFFF" d="M-430.011,329.211h-47.267v-3.882l12.609-12.944l5.181,5.317l11.849-12.164l17.628,18.097V329.211z
					 M-475.658,327.591h44.028v-3.299l-16.009-16.432l-11.849,12.163l-5.181-5.317l-10.989,11.281V327.591z"/>
			</g>
		</g>
	</g>
	<g>
		<g>
			<path fill="#FFFFFF" d="M-339.731,291.083l2.584,2.582c1.771-1.771,2.197-2.198,0.908-3.488
				C-337.532,288.883-337.958,289.31-339.731,291.083z"/>
		</g>
		<g>
			<path fill="#FFFFFF" d="M-365.848,319.781l2.597-6.257l23.045-23.048l3.664,3.664l-23.315,23.225L-365.848,319.781z
				 M-361.99,314.553l-0.929,2.302l2.304-0.93l21.784-21.784l-1.375-1.374L-361.99,314.553z"/>
		</g>
		<g>
			<polygon fill="#FFFFFF" points="-360.162,316.616 -364.384,318.319 -364.384,318.319 -362.681,314.097 			"/>
		</g>
		<g>
			<polygon fill="#FFFFFF" points="-345.896,334.629 -380.833,334.629 -380.833,299.69 -352.215,299.69 -352.215,301.31 
				-379.214,301.31 -379.214,333.01 -347.516,333.01 -347.516,305.872 -345.896,305.872 			"/>
		</g>
	</g>
	<g>
		<g>
			<path fill="#FFFFFF" d="M-262.703,322.714c-3.85,0-6.981-3.131-6.981-6.979v-19.115c0-3.85,3.132-6.981,6.981-6.981
				c3.848,0,6.979,3.132,6.979,6.981v19.115C-255.724,319.583-258.855,322.714-262.703,322.714z M-262.703,291.12
				c-3.032,0-5.499,2.466-5.499,5.499v19.115c0,3.032,2.467,5.498,5.499,5.498s5.498-2.466,5.498-5.498v-19.115
				C-257.205,293.586-259.671,291.12-262.703,291.12z"/>
		</g>
		<g>
			<path fill="#FFFFFF" d="M-262.703,326.635c-5.845,0-10.601-4.756-10.601-10.601v-9.858h1.482v9.858
				c0,5.027,4.091,9.118,9.118,9.118s9.117-4.091,9.117-9.118v-9.858h1.481v9.858C-252.104,321.879-256.859,326.635-262.703,326.635
				z"/>
		</g>
		<g>
			<rect x="-268.943" y="332.739" fill="#FFFFFF" width="12.479" height="1.481"/>
		</g>
		<g>
			<rect x="-263.444" y="325.894" fill="#FFFFFF" width="1.482" height="7.586"/>
		</g>
	</g>
	<g>
		<g>
			<path fill="#FFFFFF" d="M-167.832,332.616c-5.841,0.001-11.341-2.258-15.498-6.367c-4.189-4.143-6.515-9.666-6.55-15.556
				c-0.032-5.891,2.228-11.442,6.37-15.631c4.14-4.188,9.665-6.515,15.556-6.549c0.041,0,0.086,0,0.127,0
				c12.087,0,21.967,9.796,22.05,21.897l-1.511,0.011c-0.077-11.271-9.281-20.397-20.539-20.397c-0.04,0-0.08,0-0.118,0
				c-5.488,0.032-10.634,2.198-14.49,6.101c-3.858,3.901-5.965,9.071-5.934,14.56c0.032,5.484,2.198,10.631,6.101,14.49
				c3.872,3.827,8.996,5.931,14.437,5.931c0.04,0,0.081,0,0.123,0c6.579-0.038,12.79-3.264,16.617-8.631l1.23,0.877
				c-4.107,5.761-10.775,9.224-17.839,9.265C-167.745,332.616-167.789,332.616-167.832,332.616z"/>
		</g>
		<g>
			<polygon fill="#FFFFFF" points="-152.413,305.043 -147.432,313.559 -142.55,304.987 			"/>
		</g>
		<g>
			<g>
				<path fill="#FFFFFF" d="M-173.784,309.922l-0.023-4.082c-0.019-3.281,2.638-5.967,5.918-5.985c3.298,0,5.967,2.654,5.987,5.917
					l0.021,4.081L-173.784,309.922z M-167.854,301.365c-2.476,0.013-4.457,2.017-4.444,4.466l0.016,2.571l8.882-0.052l-0.013-2.57
					C-163.428,303.347-165.42,301.365-167.854,301.365z"/>
			</g>
			<g>
				<path fill="#FFFFFF" d="M-175.167,321.318h-0.004c-0.598,0-1.086-0.485-1.089-1.083l-0.062-10.721
					c-0.003-0.601,0.482-1.091,1.082-1.097l14.798-0.084c0.603,0,1.092,0.485,1.095,1.082l0.062,10.722
					c0.003,0.291-0.109,0.565-0.314,0.773c-0.205,0.206-0.478,0.321-0.769,0.321L-175.167,321.318z M-174.809,309.928l0.057,9.878
					l13.953-0.081l-0.057-9.878L-174.809,309.928z"/>
			</g>
		</g>
	</g>
	<g>
		<g>
			<path fill="#FFFFFF" d="M-838.629,431.217c-12.727,0-23.081-10.354-23.081-23.081s10.354-23.081,23.081-23.081
				s23.081,10.354,23.081,23.081S-825.902,431.217-838.629,431.217z M-838.629,386.638c-11.854,0-21.498,9.643-21.498,21.498
				s9.645,21.498,21.498,21.498s21.498-9.643,21.498-21.498S-826.775,386.638-838.629,386.638z"/>
		</g>
		<g>
			<path fill="#FFFFFF" d="M-838.629,431.217c-5.615,0-11.028-2.044-15.244-5.757l-0.583-0.512l0.5-0.592
				c1.479-1.755,4.097-3.219,7.368-4.118c1.172-0.467,1.736-0.776,2.158-1.199c0.451-0.45,0.7-0.875,0.787-1.339
				c0.059-0.32,0.043-2.007-0.003-3.502c-0.812-0.92-1.518-2.289-2.197-4.265c-0.697-0.364-1.319-1.259-1.506-2.241
				c-0.198-1.055-0.085-1.941,0.286-2.472c-0.863-5.069-0.305-8.835,1.664-11.194c1.535-1.842,3.884-2.775,6.984-2.775l0.277-0.004
				c2.58,0,3.173,0.541,3.731,1.302c0.108,0.148,0.195,0.267,0.326,0.374c1.427,0.002,2.611,0.574,3.426,1.654
				c1.547,2.05,1.734,5.973,0.52,10.567c0.43,0.525,0.548,1.474,0.298,2.604c-0.235,1.048-0.976,1.987-1.721,2.272
				c-0.55,1.809-1.111,3.181-1.997,4.211v3.303c0.097,0.73,0.375,1,0.879,1.489l0.335,0.334c0.315,0.252,0.594,0.386,1.843,0.937
				c3.133,0.865,5.724,2.322,7.191,4.062l0.499,0.592l-0.581,0.512C-827.603,429.173-833.016,431.217-838.629,431.217z
				 M-852.2,424.805c3.829,3.119,8.616,4.829,13.571,4.829s9.74-1.71,13.569-4.829c-1.331-1.252-3.413-2.31-5.968-3.023
				c-1.392-0.604-1.824-0.804-2.381-1.262l-0.369-0.36c-0.582-0.564-1.181-1.148-1.353-2.527l-0.006-4.025l0.221-0.229
				c0.878-0.912,1.433-2.394,1.998-4.338l0.32-1.099l0.645,0.483c0.192-0.18,0.465-0.544,0.572-1.021
				c0.13-0.587,0.097-1.006,0.049-1.19l-0.603-0.191l0.127-0.761c1.226-4.289,1.184-8.02-0.108-9.732
				c-0.519-0.689-1.229-1.023-2.168-1.023l-0.43,0.016l-0.204-0.12c-0.517-0.307-0.775-0.659-0.963-0.916
				c-0.268-0.366-0.479-0.655-2.455-0.655l-0.266,0.003c-2.619,0-4.559,0.742-5.78,2.206c-1.707,2.049-2.125,5.521-1.246,10.322
				l0.144,0.791l-0.526,0.087c-0.051,0.197-0.086,0.602,0.019,1.159c0.121,0.637,0.546,1.087,0.687,1.15l0.595-0.025l0.048,0.549
				c0.699,2.113,1.385,3.462,2.161,4.247l0.218,0.219l0.011,0.31c0.028,0.801,0.11,3.469-0.012,4.14
				c-0.146,0.782-0.546,1.493-1.224,2.171c-0.669,0.671-1.492,1.072-2.776,1.579C-848.74,422.472-850.855,423.54-852.2,424.805z"/>
		</g>
	</g>
	<g>
		<g>
			<g>
				<path fill="#FFFFFF" d="M-753.443,388.456h-1.53v-2.109c0-0.543-0.441-0.983-0.985-0.983c-0.543,0-0.984,0.44-0.984,0.983v2.109
					h-1.53v-2.109c0-1.387,1.128-2.514,2.515-2.514c1.387,0,2.515,1.127,2.515,2.514V388.456z"/>
			</g>
			<g>
				<g>
					<path fill="#FFFFFF" d="M-726.776,388.456h-1.53v-2.109c0-0.543-0.442-0.983-0.985-0.983s-0.985,0.44-0.985,0.983v2.109h-1.53
						v-2.109c0-1.387,1.128-2.514,2.515-2.514s2.515,1.127,2.515,2.514V388.456z"/>
				</g>
				<g>
					<path fill="#FFFFFF" d="M-723.404,430.217h-38.439c-1.402,0-2.543-1.14-2.543-2.543v-37.439c0-1.401,1.141-2.543,2.543-2.543
						h4.901v3.541c0,0.544,0.441,0.986,0.984,0.986c0.543,0,0.985-0.442,0.985-0.986v-3.541h24.697v3.541
						c0,0.544,0.442,0.986,0.985,0.986s0.985-0.442,0.985-0.986v-3.541h4.902c1.401,0,2.542,1.142,2.542,2.543v37.439
						C-720.862,429.077-722.003,430.217-723.404,430.217z M-761.844,389.222c-0.559,0-1.013,0.454-1.013,1.013v37.439
						c0,0.559,0.454,1.013,1.013,1.013h38.439c0.558,0,1.012-0.454,1.012-1.013v-37.439c0-0.559-0.454-1.013-1.012-1.013h-3.372
						v2.011c0,1.387-1.128,2.517-2.515,2.517s-2.515-1.13-2.515-2.517v-2.011h-21.637v2.011c0,1.387-1.128,2.517-2.515,2.517
						c-1.386,0-2.515-1.13-2.515-2.517v-2.011H-761.844z"/>
				</g>
				<g>
					<path fill="#FFFFFF" d="M-729.291,393.749c-1.387,0-2.515-1.13-2.515-2.517v-2.776h1.53v2.776c0,0.544,0.442,0.986,0.985,0.986
						s0.985-0.442,0.985-0.986v-2.776h1.53v2.776C-726.776,392.619-727.904,393.749-729.291,393.749z"/>
				</g>
			</g>
		</g>
		<g>
			<rect x="-763.622" y="397.579" fill="#FFFFFF" width="41.995" height="1.529"/>
		</g>
	</g>
	<g>
		<polygon fill="#FFFFFF" points="-622.789,418.249 -632.14,418.249 -632.14,416.629 -624.41,416.629 -624.41,393.142 
			-669.096,393.142 -669.096,416.629 -661.366,416.629 -661.366,418.249 -670.716,418.249 -670.716,391.521 -622.789,391.521 		"/>
	</g>
	<g>
		<path fill="#FFFFFF" d="M-631.559,427.221h-30.387l15.193-20.174L-631.559,427.221z M-658.697,425.601h23.89l-11.945-15.86
			L-658.697,425.601z"/>
	</g>
	<path fill="#FFFFFF" d="M209.193,526.497c-3.641,0-6.086-2.072-6.086-5.156c0-3.801,3.782-7.877,8.61-9.28
		c0.895-0.26,1.775-0.41,2.625-0.45v-30.525l5.783-1.184l0.345,0.227c8.319,5.452,10.204,16.019,10.951,25.636l0.036,0.46
		l-3.538,3.519l-0.606-1.276c-0.267-0.561-0.513-1.142-0.76-1.723c-1.211-2.856-2.263-5.337-5.668-5.498v15.512
		c0,3.801-3.782,7.877-8.61,9.277C211.219,526.341,210.182,526.497,209.193,526.497z M214.801,513.6
		c-0.801,0-1.65,0.128-2.525,0.382c-3.885,1.129-7.168,4.499-7.168,7.359c0,2.327,2.11,3.156,4.086,3.156
		c0.8,0,1.649-0.129,2.525-0.383c3.885-1.128,7.167-4.497,7.167-7.357v-17.438l0.937-0.06c5.613-0.365,7.176,3.408,8.573,6.703
		c0.048,0.114,0.097,0.228,0.146,0.342l0.851-0.847c-0.723-8.868-2.495-18.466-9.679-23.431l-3.37,0.689v30.97l-1.067-0.071
		C215.12,513.604,214.962,513.6,214.801,513.6z"/>
	<g>
		<g>
			<path fill="#FFFFFF" d="M142.888,517.786H99.603c-0.888,0-1.611-0.724-1.611-1.611v-27.01c0-0.888,0.724-1.611,1.611-1.611
				h43.285c0.889,0,1.612,0.724,1.612,1.611v27.01C144.5,517.062,143.776,517.786,142.888,517.786z M99.816,515.961h42.858v-26.582
				H99.816V515.961z"/>
		</g>
		<g>
			<g>
				<path fill="#FFFFFF" d="M142.888,517.803H99.603c-0.322,0-0.635-0.095-0.9-0.274l-0.914-0.623l15.476-15.473l7.981,7.979
					l7.982-7.979l15.482,15.48l-0.927,0.617C143.516,517.71,143.207,517.803,142.888,517.803z M113.264,504.013l-12.002,12.002
					l39.932-0.035l-11.966-11.967l-6.799,6.799c-0.631,0.631-1.736,0.631-2.367,0L113.264,504.013z"/>
			</g>
			<g>
				<path fill="#FFFFFF" d="M121.245,511.243c-0.447,0-0.868-0.175-1.184-0.492l-22.269-22.267l0.854-0.631
					c0.279-0.207,0.609-0.313,0.955-0.313h43.285c0.347,0,0.676,0.106,0.956,0.313l0.854,0.631l-22.269,22.267
					C122.113,511.068,121.692,511.243,121.245,511.243z M101.253,489.361l19.992,19.992l20.03-20.03L101.253,489.361z"/>
			</g>
		</g>
	</g>
	<g>
		<path fill="#FFFFFF" d="M3.21,516.697H2.736l-0.25-0.421c-0.245-0.434-0.394-0.696,2.972-6.282
			c5.828-9.668,14.511-15.111,25.811-16.185v-7.846l17.796,14.169L31.269,514.3v-8.236c-7.324-0.582-14.026,0.75-19.596,3.89
			c-2.751,1.551-6.637,5.181-7.649,6.298C3.882,516.406,3.618,516.697,3.21,516.697z M32.89,489.325v5.996l-1.264,0.084
			c-11.013,0.986-19.118,6.035-24.778,15.425c-0.235,0.39-0.481,0.804-0.727,1.222c1.522-1.311,3.272-2.673,4.757-3.51
			c4.979-2.808,10.74-4.23,17.12-4.23c1.365,0,2.765,0.068,4.158,0.203l0.733,0.071v6.353l13.573-10.806L32.89,489.325z"/>
	</g>
	<g>
		<path fill="#FFFFFF" d="M-47.873,516.697c-0.408,0-0.673-0.291-0.814-0.446c-1.012-1.117-4.897-4.747-7.648-6.298
			c-5.569-3.14-12.274-4.472-19.596-3.89v8.236l-17.796-14.167l17.796-14.169v7.846c11.3,1.073,19.982,6.517,25.811,16.185
			c3.365,5.586,3.217,5.849,2.972,6.282l-0.233,0.412L-47.873,516.697z M-72.661,504.312c6.38,0,12.142,1.423,17.12,4.23
			c1.485,0.838,3.239,2.204,4.755,3.506c-0.245-0.416-0.49-0.828-0.725-1.218c-5.66-9.392-13.766-14.438-24.78-15.425l-1.262-0.086
			v-5.994l-13.573,10.808l13.573,10.806v-6.353l0.733-0.071C-75.426,504.38-74.026,504.312-72.661,504.312z"/>
	</g>
	<g>
		<g>
			<path fill="#FFFFFF" d="M-438.479,514.709l-29.707-0.057c-5.453-0.555-9.625-5.114-9.625-10.679
				c0-5.825,4.664-10.582,10.452-10.735c0.54-3.34,3.445-5.865,6.9-5.865c1.583,0,3.089,0.524,4.314,1.489
				c2.125-2.514,5.277-3.994,8.589-3.994c6.195,0,11.235,5.04,11.235,11.235c0,1.437-0.263,2.822-0.784,4.132
				c3.398,0.642,5.927,3.609,5.927,7.173C-431.179,511.435-434.454,514.709-438.479,514.709z M-467.226,513.219h28.747
				c3.204,0,5.811-2.607,5.811-5.811c0-3.127-2.445-5.677-5.566-5.805l-1.162-0.05l0.528-1.033c0.702-1.377,1.057-2.861,1.057-4.417
				c0-5.373-4.371-9.745-9.745-9.745c-3.109,0-6.058,1.505-7.887,4.024l-0.513,0.706l-0.617-0.617
				c-1.039-1.036-2.419-1.608-3.886-1.608c-2.907,0-5.318,2.271-5.49,5.169l-0.042,0.726l-1.083-0.033
				c-5.099,0-9.247,4.148-9.247,9.249c0,5.001,3.913,9.059,8.907,9.239L-467.226,513.219z"/>
		</g>
	</g>
	<g>
		<g>
			<path fill="#FFFFFF" d="M-342.722,510.604h-13.57v-1.49h13.57c3.19,0,5.787-2.598,5.787-5.787c0-3.112-2.436-5.652-5.543-5.782
				l-1.162-0.046l0.529-1.037c0.698-1.369,1.053-2.85,1.053-4.398c0-5.35-4.354-9.705-9.706-9.705c-3.096,0-6.033,1.499-7.857,4.009
				l-0.512,0.706l-0.617-0.617c-1.033-1.032-2.407-1.603-3.87-1.603c-2.895,0-5.296,2.262-5.466,5.146l-0.042,0.728l-1.082-0.032
				c-5.077,0-9.208,4.131-9.208,9.208c0,4.98,3.896,9.024,8.87,9.203l0.188,0.008h10.297v1.49l-11.257-0.059
				c-5.433-0.553-9.59-5.098-9.59-10.643c0-5.803,4.646-10.542,10.413-10.695c0.538-3.33,3.433-5.846,6.876-5.846
				c1.579,0,3.078,0.523,4.3,1.485c2.116-2.507,5.259-3.979,8.557-3.979c6.173,0,11.196,5.022,11.196,11.195
				c0,1.43-0.263,2.81-0.781,4.116c3.387,0.641,5.904,3.597,5.904,7.147C-335.444,507.338-338.709,510.604-342.722,510.604z"/>
		</g>
		<g>
			<polygon fill="#FFFFFF" points="-365.419,501.912 -366.474,500.858 -358.696,493.081 -350.921,500.858 -351.975,501.912 
				-358.696,495.188 			"/>
		</g>
		<g>
			<rect x="-359.441" y="494.632" fill="#FFFFFF" width="1.49" height="28.636"/>
		</g>
	</g>
	<g>
		<g>
			<path fill="#FFFFFF" d="M-247.245,510.604h-13.57v-1.49h13.57c3.19,0,5.785-2.598,5.785-5.787c0-3.112-2.435-5.652-5.542-5.782
				l-1.162-0.046l0.528-1.037c0.699-1.369,1.053-2.85,1.053-4.398c0-5.35-4.354-9.705-9.705-9.705c-3.097,0-6.032,1.499-7.855,4.009
				l-0.513,0.704l-0.617-0.614c-1.035-1.033-2.409-1.604-3.87-1.604c-2.894,0-5.295,2.262-5.467,5.147l-0.042,0.727l-1.082-0.032
				c-5.078,0-9.209,4.131-9.209,9.208c0,4.98,3.896,9.024,8.87,9.203l0.189,0.008h10.296v1.49l-11.257-0.059
				c-5.432-0.553-9.589-5.098-9.589-10.643c0-5.803,4.646-10.542,10.413-10.695c0.539-3.329,3.435-5.846,6.877-5.846
				c1.578,0,3.077,0.523,4.3,1.485c2.116-2.505,5.257-3.979,8.556-3.979c6.173,0,11.195,5.022,11.195,11.195
				c0,1.43-0.262,2.81-0.78,4.116c3.386,0.641,5.903,3.597,5.903,7.147C-239.97,507.338-243.234,510.604-247.245,510.604z"/>
		</g>
		<g>
			<polygon fill="#FFFFFF" points="-263.221,526.139 -270.996,518.362 -269.942,517.309 -263.221,524.031 -256.498,517.309 
				-255.444,518.362 			"/>
		</g>
		<g>
			<rect x="-263.967" y="495.954" fill="#FFFFFF" width="1.491" height="28.635"/>
		</g>
	</g>
	<g>
		<g>
			<polygon fill="#FFFFFF" points="-742.684,512.103 -750.515,504.271 -749.363,503.12 -742.684,509.801 -736.003,503.12 
				-734.852,504.271 			"/>
		</g>
		<g>
			<rect x="-743.498" y="481.794" fill="#FFFFFF" width="1.628" height="28.662"/>
		</g>
		<g>
			<polygon fill="#FFFFFF" points="-725.65,527.048 -759.607,527.048 -759.607,493.092 -746.987,493.092 -746.987,494.72 
				-757.979,494.72 -757.979,525.42 -727.278,525.42 -727.278,494.72 -737.939,494.72 -737.939,493.092 -725.65,493.092 			"/>
		</g>
	</g>
	<g>
		<g>
			<polygon fill="#FFFFFF" points="-654.241,489.196 -655.392,488.045 -647.339,479.994 -639.288,488.045 -640.438,489.196 
				-647.339,482.296 			"/>
		</g>
		<g>
			<rect x="-648.153" y="481.657" fill="#FFFFFF" width="1.628" height="29.531"/>
		</g>
		<g>
			<polygon fill="#FFFFFF" points="-629.813,527.696 -664.752,527.696 -664.752,492.758 -651.773,492.758 -651.773,494.386 
				-663.124,494.386 -663.124,526.068 -631.441,526.068 -631.441,494.386 -642.451,494.386 -642.451,492.758 -629.813,492.758 			
				"/>
		</g>
	</g>
	<path fill="#FFFFFF" d="M-561.162,527.713c-0.418,0-0.829-0.108-1.187-0.314c-1-0.565-1.46-1.772-1.086-2.866l5.546-16.384h-5.482
		c-0.783,0-1.519-0.384-1.97-1.026c-0.452-0.649-0.558-1.474-0.287-2.21l8.84-23.865c0.344-0.939,1.251-1.572,2.255-1.572h17.675
		c1.332,0,2.409,1.079,2.409,2.405c0,0.507-0.158,0.994-0.458,1.407l-8.969,13.129h4.372c0.931,0,1.786,0.546,2.179,1.391
		c0.393,0.847,0.259,1.853-0.342,2.563l-21.646,26.475C-559.782,527.4-560.452,527.713-561.162,527.713z M-554.533,481.475
		c-0.168,0-0.321,0.106-0.378,0.265l-8.84,23.866c-0.045,0.122-0.026,0.262,0.05,0.372c0.074,0.105,0.199,0.171,0.33,0.171h8.271
		l-6.441,19.027c-0.063,0.187,0.014,0.39,0.183,0.485c0.263,0.147,0.398,0.036,0.508-0.094l21.646-26.476
		c0.111-0.131,0.132-0.3,0.066-0.442c-0.066-0.142-0.21-0.233-0.366-0.233h-8.16l11.122-16.28c0.051-0.071,0.093-0.151,0.093-0.256
		c0-0.228-0.176-0.405-0.401-0.405H-554.533z"/>
	<g>
		<path fill="#FFFFFF" d="M-177.47,526.589h-5.606c-2.098,0-3.804-1.706-3.804-3.804v-25.229c0-2.097,1.706-3.803,3.804-3.803h5.606
			c2.097,0,3.803,1.706,3.803,3.803v25.229C-173.667,524.883-175.373,526.589-177.47,526.589z M-183.076,495.753
			c-0.994,0-1.804,0.809-1.804,1.803v25.229c0,0.994,0.81,1.804,1.804,1.804h5.606c0.994,0,1.803-0.81,1.803-1.804v-25.229
			c0-0.994-0.809-1.803-1.803-1.803H-183.076z"/>
		<path fill="#FFFFFF" d="M-163.454,526.589h-5.606c-2.097,0-3.803-1.706-3.803-3.804V483.54c0-2.098,1.706-3.804,3.803-3.804h5.606
			c2.098,0,3.804,1.706,3.804,3.804v39.245C-159.65,524.883-161.356,526.589-163.454,526.589z M-169.061,481.736
			c-0.994,0-1.803,0.81-1.803,1.804v39.245c0,0.994,0.809,1.804,1.803,1.804h5.606c0.994,0,1.804-0.81,1.804-1.804V483.54
			c0-0.994-0.81-1.804-1.804-1.804H-169.061z"/>
		<path fill="#FFFFFF" d="M-149.438,526.589h-5.606c-2.097,0-3.803-1.706-3.803-3.804v-16.819c0-2.097,1.706-3.803,3.803-3.803
			h5.606c2.098,0,3.804,1.706,3.804,3.803v16.819C-145.634,524.883-147.34,526.589-149.438,526.589z M-155.044,504.163
			c-0.994,0-1.803,0.809-1.803,1.803v16.819c0,0.994,0.809,1.804,1.803,1.804h5.606c0.994,0,1.804-0.81,1.804-1.804v-16.819
			c0-0.994-0.81-1.803-1.804-1.803H-155.044z"/>
	</g>
	<path fill="#FFFFFF" d="M-829.494,526.473h-19.001c-2.048,0-3.715-1.666-3.715-3.715v-16.644h-5.786
		c-1.479,0-2.816-0.877-3.406-2.235c-0.589-1.356-0.318-2.933,0.691-4.015l19.035-18.541c0.666-0.715,1.655-1.145,2.682-1.145
		s2.017,0.43,2.716,1.18l18.968,18.471c1.043,1.117,1.314,2.693,0.725,4.05c-0.59,1.358-1.928,2.235-3.406,2.235h-5.787v16.644
		C-825.779,524.807-827.445,526.473-829.494,526.473z M-838.995,482.179c-0.474,0-0.931,0.198-1.252,0.543l-19.035,18.541
		c-0.433,0.465-0.558,1.193-0.286,1.819c0.272,0.627,0.89,1.032,1.572,1.032h7.786v18.644c0,0.945,0.769,1.715,1.715,1.715h19.001
		c0.945,0,1.714-0.77,1.714-1.715v-18.644h7.787c0.682,0,1.299-0.405,1.572-1.032c0.272-0.626,0.146-1.354-0.32-1.854
		l-18.968-18.471C-838.063,482.377-838.521,482.179-838.995,482.179z"/>
</g>
</svg>
