<?xml version="1.0" encoding="utf-8"?>
<!-- Generator: Adobe Illustrator 15.0.0, SVG Export Plug-In . SVG Version: 6.00 Build 0)  -->
<!DOCTYPE svg PUBLIC "-//W3C//DTD SVG 1.1//EN" "http://www.w3.org/Graphics/SVG/1.1/DTD/svg11.dtd">
<svg version="1.1" id="图层_1" xmlns="http://www.w3.org/2000/svg" xmlns:xlink="http://www.w3.org/1999/xlink" x="0px" y="0px"
	 width="14.031px" height="19.446px" viewBox="0 0 14.031 19.446" enable-background="new 0 0 14.031 19.446" xml:space="preserve">
<g id="XMLID_7_">
	<g>
		<path fill="#55616F" d="M12.649,8.309c0.21-0.816,0.166-2.095-0.118-2.784c-0.126-0.305-0.191-0.656-0.343-0.953
			c-0.642-1.264-1.582-2.083-2.869-2.708C8.875,1.648,8.363,1.569,7.821,1.425C7.717,1.421,7.614,1.418,7.51,1.414
			C7.335,1.377,7.031,1.346,6.814,1.382c-0.458,0.078-0.9,0.076-1.306,0.204c-1.78,0.557-2.965,1.663-3.704,3.297
			c-0.247,0.547-0.61,1.699-0.45,2.58c0.011,0.16,0.021,0.321,0.033,0.481c0.125,0.447,0.214,0.912,0.375,1.338
			c0.297,0.793,0.875,1.55,1.466,2.066c0.207,0.164,0.414,0.329,0.621,0.493c0.089,0.062,0.231,0.101,0.289,0.193
			c0.003,0.806,0.007,1.612,0.01,2.419c0,0.207-0.051,0.555,0.022,0.718c0.422,0.147,1.276,0.063,1.82,0.063
			c1.277,0,2.555,0,3.833,0c0.035-0.021,0.071-0.042,0.107-0.063c0.003-1.046,0.007-2.091,0.01-3.137
			c0.193-0.129,0.386-0.257,0.579-0.386c0.132-0.099,0.248-0.225,0.385-0.321c0.136-0.147,0.271-0.292,0.407-0.439
			C11.932,10.18,12.374,9.377,12.649,8.309z M10.668,14.453c0,0.335,0.039,0.756-0.064,0.996c-0.14,0.325-0.44,0.438-0.803,0.514
			c-0.003,0.671-0.007,1.342-0.011,2.013c0,0.25,0.052,0.647-0.043,0.824c-0.077,0.143-0.201,0.175-0.342,0.257
			c-1.217,0-2.434,0-3.651,0c-0.483,0-1.133,0.069-1.327-0.225c-0.125-0.19-0.096-0.563-0.096-0.867
			c-0.003-0.667-0.007-1.335-0.011-2.002c-0.487,0-0.798-0.324-0.91-0.706c0-0.675,0-1.35,0-2.024
			c-0.003-0.268-0.007-0.535-0.01-0.803c-0.069-0.127-0.282-0.212-0.397-0.3c-0.228-0.214-0.456-0.428-0.685-0.642
			c-0.532-0.661-1.006-1.332-1.338-2.205C0.82,8.862,0.737,8.387,0.648,7.902C0.472,6.938,0.682,5.84,0.927,5.129
			c0.711-2.07,1.937-3.194,3.843-4.068C5.23,0.85,5.789,0.792,6.343,0.687c0.168-0.011,0.335-0.021,0.503-0.032
			c0.186,0.007,0.371,0.014,0.557,0.021c0.139,0.003,0.278,0.007,0.417,0.011C8.465,0.849,9.06,0.936,9.587,1.179
			c1.841,0.849,3.041,2.146,3.672,4.208c0.253,0.827,0.359,2.265,0.085,3.179c-0.514,1.719-1.335,2.983-2.676,3.864
			C10.668,13.104,10.668,13.779,10.668,14.453z"/>
	</g>
	<g>
	</g>
</g>
</svg>
