<?xml version="1.0" encoding="utf-8"?>
<!-- Generator: Adobe Illustrator 15.0.0, SVG Export Plug-In . SVG Version: 6.00 Build 0)  -->
<!DOCTYPE svg PUBLIC "-//W3C//DTD SVG 1.1//EN" "http://www.w3.org/Graphics/SVG/1.1/DTD/svg11.dtd">
<svg version="1.1" id="图层_1" xmlns="http://www.w3.org/2000/svg" xmlns:xlink="http://www.w3.org/1999/xlink" x="0px" y="0px"
	 width="15.973px" height="17.188px" viewBox="0 0 15.973 17.188" enable-background="new 0 0 15.973 17.188" xml:space="preserve">
<g id="XMLID_1_">
	<g>
		<path fill="#FFFFFF" d="M15.891,11.743c-0.39,0.63-2.63-0.021-2.98,0.489c-0.41,0.591,0.34,3.17-0.77,2.99
			c-1.07-0.17-0.04-2.439-0.52-2.979c-0.15-0.17-0.54-0.091-0.83-0.091c-0.71,0-1.8,0.241-2.1-0.259
			c-0.68-1.141,1.65-0.83,2.37-0.94c0.27-0.04,0.5,0.029,0.63-0.14c0.14-0.19,0.09-0.641,0.09-0.971c0-0.43-0.01-1.529,0.17-1.79
			c0.09-0.14,0.22-0.159,0.4-0.239c0.94,0.06,0.55,1.52,0.55,2.37c0,0.21-0.01,0.439,0.08,0.56c0.14,0.2,0.49,0.13,0.8,0.13
			c0.82,0,1.93-0.271,2.16,0.391C16.001,11.423,15.971,11.623,15.891,11.743z"/>
		<path fill="#FFFFFF" d="M10.741,6.253c1.16-2.7-1.01-5.17-3.61-5.16c-0.36,0.14-0.78,0.11-1.11,0.24c-1,0.39-1.76,1.14-2.15,2.13
			c-0.89,2.26,0.62,4.24,2.21,4.801c0.4,0.139,1.02,0.31,1.63,0.209C9.201,8.232,10.221,7.463,10.741,6.253z M12.941,16.033
			c0.26-0.04,0.61-0.131,0.92-0.07c0.4,0.08,0.53,0.71,0.13,0.87c-0.19,0.09-0.56,0.04-0.8,0.04c-0.74,0-1.49,0-2.23,0
			c-2.44,0-4.88,0-7.33,0c-0.76,0-1.51,0-2.27,0c-0.34,0-0.72,0.04-0.85-0.16c-0.25-0.36,0.14-2.17,0.22-2.529
			c0.42-1.781,0.97-3.311,1.87-4.601c0.24-0.3,0.48-0.61,0.73-0.91c0.17-0.18,0.34-0.359,0.51-0.54c0.17-0.28-0.11-0.59-0.22-0.75
			c-0.43-0.61-0.67-1.26-0.83-2.16c-0.06-0.39,0-0.909,0.07-1.209c0.359-1.7,1.339-2.87,2.8-3.45c0.31-0.12,0.66-0.211,1.02-0.271
			c0.17-0.01,0.35-0.021,0.53-0.04c2.25-0.03,3.67,1.261,4.32,2.86c0.32,0.78,0.46,1.97,0.17,2.909c-0.12,0.421-0.3,0.82-0.51,1.161
			c-0.23,0.369-0.57,0.859-0.9,1.13c-0.66,0.52-2.16,1.279-3.48,1.02c-0.54-0.11-1-0.23-1.44-0.42c-0.19-0.09-0.42-0.36-0.74-0.28
			c-0.39,0.1-0.91,0.85-1.14,1.16c-0.87,1.17-1.4,2.51-1.84,4.13c-0.09,0.33-0.38,1.38-0.31,1.771c0.03,0.149,0.1,0.26,0.229,0.31
			c0.25,0.011,0.49,0.02,0.74,0.03c0.63,0,1.27,0,1.9,0c2.26,0,4.52,0,6.79,0C11.641,16.033,12.291,16.033,12.941,16.033z"/>
	</g>
	<g>
	</g>
</g>
</svg>
