<?xml version="1.0" encoding="utf-8"?>
<!-- Generator: Adobe Illustrator 15.0.0, SVG Export Plug-In . SVG Version: 6.00 Build 0)  -->
<!DOCTYPE svg PUBLIC "-//W3C//DTD SVG 1.1//EN" "http://www.w3.org/Graphics/SVG/1.1/DTD/svg11.dtd">
<svg version="1.1" id="图层_1" xmlns="http://www.w3.org/2000/svg" xmlns:xlink="http://www.w3.org/1999/xlink" x="0px" y="0px"
	 width="9.917px" height="23.083px" viewBox="0 0 9.917 23.083" enable-background="new 0 0 9.917 23.083" xml:space="preserve">
<g id="XMLID_1_">
	<g>
		<path fill="#B5B5B5" d="M9.497,0.63c0.021,0,0.04,0,0.06,0c0,1.02,0,2.05,0,3.07c-2.38,2.61-4.77,5.23-7.159,7.85
			c2.39,2.681,4.779,5.36,7.159,8.05c0,1.02,0,2.051,0,3.07c-0.02,0-0.039,0-0.06,0c-0.16-0.14-0.32-0.27-0.479-0.41
			c-2.82-3.07-5.641-6.141-8.461-9.21c0-0.96,0-1.91,0-2.87C3.537,7,6.518,3.81,9.497,0.63z"/>
	</g>
	<g>
	</g>
</g>
</svg>
