<?xml version="1.0" encoding="utf-8"?>
<!-- Generator: Adobe Illustrator 15.0.0, SVG Export Plug-In . SVG Version: 6.00 Build 0)  -->
<!DOCTYPE svg PUBLIC "-//W3C//DTD SVG 1.1//EN" "http://www.w3.org/Graphics/SVG/1.1/DTD/svg11.dtd">
<svg version="1.1" id="图层_1" xmlns="http://www.w3.org/2000/svg" xmlns:xlink="http://www.w3.org/1999/xlink" x="0px" y="0px"
	 width="22.5px" height="19.423px" viewBox="0 0 22.5 19.423" enable-background="new 0 0 22.5 19.423" xml:space="preserve">
<g>
	<g id="XMLID_2_">
		<g>
			<path fill="#55616F" d="M22.029,6.225c0,2.66-2.119,4.895-2.767,5.515l-7.22,6.954c-0.219,0.219-0.512,0.34-0.833,0.34
				c-0.317,0-0.615-0.121-0.838-0.345L3.166,11.74C3.156,11.73,0.39,9.285,0.39,6.225c0-3.624,2.296-5.874,5.99-5.874
				c1.952,0,3.763,1.337,4.83,2.32c1.066-0.983,2.878-2.32,4.83-2.32C19.738,0.352,22.029,2.602,22.029,6.225z M18.597,11.093
				c0.605-0.583,2.501-2.576,2.501-4.868c0-3.139-1.844-4.942-5.058-4.942c-1.835,0-3.61,1.481-4.5,2.361l-0.331,0.326l-0.326-0.326
				c-0.895-0.88-2.665-2.361-4.504-2.361c-3.214,0-5.059,1.803-5.059,4.942c0,2.581,2.45,4.807,2.478,4.826l7.229,6.973
				c0.065,0.069,0.145,0.079,0.182,0.079c0.042,0,0.116-0.01,0.182-0.07L18.597,11.093z"/>
		</g>
		<g>
		</g>
	</g>
</g>
</svg>
