<?xml version="1.0" encoding="utf-8"?>
<!-- Generator: Adobe Illustrator 15.0.0, SVG Export Plug-In . SVG Version: 6.00 Build 0)  -->
<!DOCTYPE svg PUBLIC "-//W3C//DTD SVG 1.1//EN" "http://www.w3.org/Graphics/SVG/1.1/DTD/svg11.dtd">
<svg version="1.1" id="图层_1" xmlns="http://www.w3.org/2000/svg" xmlns:xlink="http://www.w3.org/1999/xlink" x="0px" y="0px"
	 width="21.603px" height="20.243px" viewBox="0 0 21.603 20.243" enable-background="new 0 0 21.603 20.243" xml:space="preserve">
<g id="XMLID_11_">
	<g>
		<path fill="#55616F" d="M17.442,5.2c-2.21,0-4.43,0-6.65,0c-0.65-0.01-1.29-0.02-1.94-0.03c-0.39-0.17-0.46-0.98-0.1-1.24
			c0.16-0.12,0.4-0.08,0.62-0.16c2.72,0,5.43,0,8.15,0c0.88,0,2.58-0.23,2.41,0.78C19.782,5.45,18.463,5.2,17.442,5.2z"/>
		<path fill="#55616F" d="M9.062,10.11c2.81,0,5.62,0,8.44,0c0.91,0,2.75-0.311,2.43,0.91c-0.2,0.75-1.88,0.52-2.82,0.52
			c-2.12,0-4.25,0-6.37,0c-1.22,0-2.55,0.26-2.17-1.17C8.732,10.25,8.843,10.21,9.062,10.11z"/>
		<path fill="#55616F" d="M9.522,16.33c2.67,0,5.34,0.01,8,0.02c0.88,0,2.56-0.21,2.44,0.75c-0.13,1-1.62,0.75-2.721,0.75
			c-1.87,0-3.729,0-5.59,0c-0.88-0.01-1.76-0.03-2.64-0.05c-0.56-0.12-0.72-0.99-0.24-1.32C8.963,16.35,9.282,16.41,9.522,16.33z"/>
		<path fill="#55616F" d="M3.473,16.66c-0.27,0.71,0.31,1.62,1.03,1.48c1.24-0.24,1.09-1.95-0.18-2.1
			C3.973,16.2,3.603,16.3,3.473,16.66z M4.973,19.51c-2.01,0.38-3.56-1.42-2.93-3.26c0.18-0.53,0.81-1.21,1.32-1.4
			c0.3-0.07,0.61-0.14,0.91-0.21C7.362,14.59,7.593,19.01,4.973,19.51z"/>
		<path fill="#55616F" d="M4.223,3.46c-0.39,0.22-0.83,0.43-0.93,0.91c-0.12,0.53,0.68,1.27,1.26,1.16
			C5.792,5.29,5.632,3.43,4.223,3.46z M3.963,2.04c3.569-0.07,3.74,4.33,0.75,4.92c-1.721,0.33-3.21-1.53-2.67-3.24
			C2.333,2.8,3.112,2.42,3.963,2.04z"/>
		<path fill="#55616F" d="M4.272,11.82c1.23,0.25,1.66-1.79,0.18-2.04c-0.23,0.06-0.47,0.12-0.7,0.18
			C2.973,10.5,3.433,11.65,4.272,11.82z M4.482,13.3c-1.67,0.21-3.09-1.88-2.33-3.6c0.4-0.93,1.14-1.01,2.09-1.4
			C7.553,8.35,7.632,12.89,4.482,13.3z"/>
	</g>
	<g>
	</g>
</g>
</svg>
