<?xml version="1.0" encoding="utf-8"?>
<!-- Generator: Adobe Illustrator 15.0.0, SVG Export Plug-In . SVG Version: 6.00 Build 0)  -->
<!DOCTYPE svg PUBLIC "-//W3C//DTD SVG 1.1//EN" "http://www.w3.org/Graphics/SVG/1.1/DTD/svg11.dtd">
<svg version="1.1" id="图层_1" xmlns="http://www.w3.org/2000/svg" xmlns:xlink="http://www.w3.org/1999/xlink" x="0px" y="0px"
	 width="15.738px" height="19.07px" viewBox="0 0 15.738 19.07" enable-background="new 0 0 15.738 19.07" xml:space="preserve">
<g>
	<g>
		<path fill="#55616F" d="M11.535,8.875c0.83-0.895,1.342-2.088,1.342-3.402c0-2.764-2.249-5.013-5.014-5.013
			c-2.764,0-5.013,2.249-5.013,5.013c0,1.314,0.512,2.507,1.342,3.402c-2.108,1.821-3.622,5.166-3.913,9.162
			c-0.012,0.155,0.043,0.309,0.149,0.423c0.106,0.114,0.255,0.179,0.411,0.179h14.049c0.156,0,0.306-0.065,0.412-0.179
			c0.105-0.115,0.16-0.268,0.148-0.423C15.158,14.042,13.643,10.696,11.535,8.875 M7.863,1.584c2.145,0,3.889,1.745,3.889,3.889
			c0,2.145-1.744,3.889-3.889,3.889S3.975,7.618,3.975,5.473C3.975,3.329,5.718,1.584,7.863,1.584 M1.454,17.515
			C1.829,13.993,3.2,11.1,5.036,9.61c0.805,0.552,1.779,0.876,2.827,0.876s2.021-0.325,2.826-0.876
			c1.836,1.49,3.208,4.382,3.583,7.904H1.454z"/>
	</g>
</g>
</svg>
