<?xml version="1.0" encoding="utf-8"?>
<!-- Generator: Adobe Illustrator 15.0.0, SVG Export Plug-In . SVG Version: 6.00 Build 0)  -->
<!DOCTYPE svg PUBLIC "-//W3C//DTD SVG 1.1//EN" "http://www.w3.org/Graphics/SVG/1.1/DTD/svg11.dtd">
<svg version="1.1" id="图层_1" xmlns="http://www.w3.org/2000/svg" xmlns:xlink="http://www.w3.org/1999/xlink" x="0px" y="0px"
	 width="20.917px" height="22.168px" viewBox="0 0 20.917 22.168" enable-background="new 0 0 20.917 22.168" xml:space="preserve">
<g id="XMLID_12_">
	<g>
		<path fill="#FFFFFF" d="M18.957,20.521c0.15-0.86,0.29-1.73,0.44-2.6c-1.23-0.42-2.11-1.27-3.14-1.87
			c-0.23,0.41-0.47,0.811-0.71,1.22c-0.69,1.08-1.39,2.17-2.08,3.25C15.296,20.521,17.126,20.521,18.957,20.521z M8.876,20.562
			c1.25-0.01,2.5-0.02,3.75-0.04c0.01-0.04,0.02-0.08,0.03-0.12c0-0.01,0-0.021,0-0.03c-0.53-0.6-0.85-1.79-1.58-2.17
			c-0.74,0.77-1.47,1.55-2.2,2.32C8.876,20.542,8.876,20.551,8.876,20.562z M8.097,20.521c0.03-0.74-0.88-1.66-1.18-2.35
			c-0.26-0.85-0.52-1.7-0.78-2.55c-0.79,0.34-2.4,0.84-2.95,1.4c0.01,1.18,0.02,2.36,0.03,3.54
			C4.847,20.551,6.466,20.542,8.097,20.521z M8.687,19.471c0.02-0.01,0.04-0.02,0.06-0.03c0.15-0.33,2.01-2.1,2.3-2.02
			c1.08,0.19,1.5,1.38,2.08,2.11c0.02-0.01,0.04-0.021,0.06-0.03c0.82-1.29,1.64-2.59,2.45-3.88c-0.26-0.29-0.59-0.43-0.74-0.84
			c0.03-0.07,0.06-0.11,0.09-0.15c0.04-0.04,0.08-0.08,0.13-0.13c0.77,0,3.01,1.8,3.75,2.24c0.35,0.21,1.09,0.479,1.24,0.87
			c0.34,0.82-0.36,3.52-0.68,3.88c-3.79,0.01-7.58,0.02-11.36,0.03c-1.36,0-3.13,0.15-4.35-0.09c-0.5-0.03-0.99-0.05-1.49-0.07
			c-0.19-1.12-0.96-3.141-0.56-4.47c1.27-0.64,2.74-1.11,4.1-1.64c0.44-0.17,1.16-0.58,1.52-0.31c0,0.01,0,0.02,0,0.03
			c0,0.04,0,0.08,0,0.12c-0.16,0.11-0.3,0.19-0.53,0.25c0.3,0.811,0.6,1.61,0.9,2.42C7.997,18.332,8.347,18.902,8.687,19.471z"/>
		<path fill="#FFFFFF" d="M9.457,12.792c0.37,0.09,0.73,0.17,1.09,0.25c0.71,0.11,1.39-0.38,1.89-0.06c0,0.06,0,0.12,0,0.19
			c-0.58,0.88-2.59,0.64-3.19,0C9.247,12.902,9.307,12.902,9.457,12.792z"/>
		<path fill="#FFFFFF" d="M12.506,15.122c2.33-0.92,3.91-3.54,3.91-6.77c-3.44,0.27-7.39,0.1-10.93,0.13
			C5.486,12.091,8.426,16.731,12.506,15.122z M8.626,15.501c-0.42-0.21-0.81-0.48-1.17-0.78c-1.59-1.34-2.6-3.51-2.59-6.27
			c-0.9,0.01-2.43,0.19-2.64-0.5c-0.33-1.09,2.39-2.5,3.07-2.82c0.48-2.72,4.05-5.97,7.67-4.41c2.98,1.271,5.09,5.9,3.73,10.37
			c-0.38,1.25-1.04,2.43-1.92,3.33c-0.53,0.53-1.13,0.97-1.81,1.26C11.696,16.231,9.707,16.051,8.626,15.501z"/>
	</g>
	<g>
	</g>
</g>
</svg>
