<?xml version="1.0" encoding="utf-8"?>
<!-- Generator: Adobe Illustrator 15.0.0, SVG Export Plug-In . SVG Version: 6.00 Build 0)  -->
<!DOCTYPE svg PUBLIC "-//W3C//DTD SVG 1.1//EN" "http://www.w3.org/Graphics/SVG/1.1/DTD/svg11.dtd">
<svg version="1.1" id="图层_1" xmlns="http://www.w3.org/2000/svg" xmlns:xlink="http://www.w3.org/1999/xlink" x="0px" y="0px"
	 width="20.625px" height="19.5px" viewBox="0 0 20.625 19.5" enable-background="new 0 0 20.625 19.5" xml:space="preserve">
<g id="XMLID_8_">
	<g>
		<path fill="#55616F" d="M4.768,17.885c0.51-0.06,1.11-0.439,1.28-0.85c0.41-0.98,0.11-4.91,0.11-6.3
			c-0.02-0.75-0.04-1.5-0.06-2.25c-0.34-0.9-1.71-0.82-2.94-0.8c-0.56,0.23-0.99,0.27-1.22,0.8c-0.42,0.97-0.18,8.28,0.16,8.76
			C2.527,17.875,3.808,18.015,4.768,17.885z M9.038,18.475c-0.62-0.2-1.78-0.93-2.46-0.69c-0.5,0.28-0.66,0.77-1.33,0.96
			c-0.51,0.14-1.31,0.14-1.87,0.05c-3.25-0.51-2.51-2.94-2.51-6.46c0-1.4-0.26-3.53,0.26-4.49c0.83-1.5,3.14-1.04,4.92-0.85
			c1.19-0.63,3.33-3.01,4.06-4.17c0.27-0.42,0.29-0.91,0.59-1.28c0.3-0.21,0.6-0.43,0.9-0.64c2.43-0.03,3.05,1.82,2.25,3.84
			c-0.15,0.38-1.05,1.1-0.59,1.5c1.57,0.62,4.16-0.52,5.82,0.21c0.75,0.34,1.58,1.46,1.12,2.62c-0.23,0.34-0.46,0.68-0.69,1.02
			c-0.12,0.49,0.41,1,0.21,1.71c-0.25,0.32-0.5,0.64-0.75,0.96c0.09,0.51,0.18,1.03,0.27,1.55c-0.12,0.63-0.6,0.9-0.85,1.38
			c0.32,0.99,0.21,2.29-0.54,2.78C16.627,19.285,10.447,18.935,9.038,18.475z M6.897,8.065c1,2.07-0.11,6.02,0.43,8.49
			c0.61,0.44,1.5,0.88,2.35,1.07c1.51,0.33,6.59,0.51,7.64-0.11c0.07-0.25,0.14-0.5,0.21-0.75c-0.09-0.18-0.18-0.35-0.26-0.53
			c-0.2-0.11-0.4-0.22-0.59-0.32c-0.72-0.19-3.61,0.6-3.15-0.64c0.38-0.681,3.67-0.08,4.54-0.75c0.14-0.57,0.01-0.851-0.27-1.23
			c-1.05-0.19-2.8-0.01-3.74-0.27c-0.05-0.19-0.11-0.391-0.16-0.58c0.09-0.09,0.18-0.18,0.27-0.271c1.43-0.54,3.2,0.29,4.43-0.479
			c0.12-0.4,0.06-0.68-0.05-1.07c-1.03-0.56-2.86-0.1-4.12-0.48c-0.05-0.2-0.1-0.39-0.16-0.59c0.04-0.07,0.08-0.14,0.11-0.21
			c1.44-0.62,4.24,0.55,4.97-0.859c-0.35-2.66-6.71,0.06-7.96-1.71c0.12-0.66,3.74-4.78,0.53-4.8c-0.47,0.44-0.6,0.85-0.96,1.44
			c-0.87,1-1.74,1.99-2.61,2.99C7.888,6.895,6.978,7.225,6.897,8.065z"/>
	</g>
	<g>
	</g>
</g>
</svg>
