<?xml version="1.0" encoding="utf-8"?>
<!-- Generator: Adobe Illustrator 15.0.0, SVG Export Plug-In . SVG Version: 6.00 Build 0)  -->
<!DOCTYPE svg PUBLIC "-//W3C//DTD SVG 1.1//EN" "http://www.w3.org/Graphics/SVG/1.1/DTD/svg11.dtd">
<svg version="1.1" id="图层_1" xmlns="http://www.w3.org/2000/svg" xmlns:xlink="http://www.w3.org/1999/xlink" x="0px" y="0px"
	 width="9.917px" height="23.083px" viewBox="0 0 9.917 23.083" enable-background="new 0 0 9.917 23.083" xml:space="preserve">
<g id="XMLID_1_">
	<g>
		<path fill="#B5B5B5" d="M0.618,22.669c-0.021,0-0.04,0-0.061,0c0-1.021,0-2.05,0-3.069c2.381-2.61,4.771-5.23,7.161-7.851
			c-2.391-2.68-4.78-5.36-7.161-8.05c0-1.02,0-2.05,0-3.07c0.021,0,0.04,0,0.061,0c0.16,0.14,0.32,0.27,0.479,0.41
			c2.821,3.07,5.641,6.14,8.46,9.21c0,0.96,0,1.91,0,2.87C6.578,16.299,3.598,19.49,0.618,22.669z"/>
	</g>
	<g>
	</g>
</g>
</svg>
