<?xml version="1.0" encoding="utf-8"?>
<!-- Generator: Adobe Illustrator 15.0.0, SVG Export Plug-In . SVG Version: 6.00 Build 0)  -->
<!DOCTYPE svg PUBLIC "-//W3C//DTD SVG 1.1//EN" "http://www.w3.org/Graphics/SVG/1.1/DTD/svg11.dtd">
<svg version="1.1" id="图层_1" xmlns="http://www.w3.org/2000/svg" xmlns:xlink="http://www.w3.org/1999/xlink" x="0px" y="0px"
	 width="22.25px" height="19.625px" viewBox="0 0 22.25 19.625" enable-background="new 0 0 22.25 19.625" xml:space="preserve">
<g>
	<g>
		<path fill="#55616F" d="M11.052,6.247c-2.822,0-5.118,2.296-5.118,5.118c0,2.822,2.296,5.119,5.118,5.119s5.117-2.296,5.117-5.119
			C16.169,8.543,13.875,6.247,11.052,6.247z M11.052,15.232c-2.133,0-3.868-1.735-3.868-3.868s1.735-3.868,3.868-3.868
			c2.132,0,3.867,1.735,3.867,3.868S13.185,15.232,11.052,15.232z"/>
	</g>
	<g>
		<path fill="#55616F" d="M18.624,3.865h-6.843V3.433c0-1.608-1.309-2.917-2.917-2.917H6.571c-1.608,0-2.917,1.309-2.917,2.917
			v0.432H3.48c-1.608,0-2.917,1.309-2.917,2.918v9.387c0,1.609,1.309,2.918,2.917,2.918h15.144c1.609,0,2.918-1.309,2.918-2.918
			V6.783C21.542,5.174,20.233,3.865,18.624,3.865z M5.321,3.433c0-0.689,0.561-1.25,1.25-1.25h2.292c0.689,0,1.25,0.561,1.25,1.25
			v0.429H5.321V3.433z M19.875,16.17c0,0.689-0.561,1.251-1.25,1.251H3.48c-0.69,0-1.25-0.562-1.25-1.251V6.783
			c0-0.689,0.56-1.25,1.25-1.25h15.144c0.689,0,1.25,0.561,1.25,1.25V16.17z"/>
	</g>
</g>
</svg>
