<?xml version="1.0" encoding="utf-8"?>
<!-- Generator: Adobe Illustrator 15.0.0, SVG Export Plug-In . SVG Version: 6.00 Build 0)  -->
<!DOCTYPE svg PUBLIC "-//W3C//DTD SVG 1.1//EN" "http://www.w3.org/Graphics/SVG/1.1/DTD/svg11.dtd">
<svg version="1.1" id="图层_1" xmlns="http://www.w3.org/2000/svg" xmlns:xlink="http://www.w3.org/1999/xlink" x="0px" y="0px"
	 width="17.667px" height="17.807px" viewBox="0 0 17.667 17.807" enable-background="new 0 0 17.667 17.807" xml:space="preserve">
<g id="XMLID_14_">
	<g>
		<path fill="#FFFFFF" d="M8.934,17.313c-1.21-0.89-0.48-1.42,0.24-2.16c0.53,0.02,0.85,0.64,1.23,0.88
			c0.01,0.09,0.02,0.18,0.02,0.27C10.354,16.764,9.434,17.443,8.934,17.313z"/>
		<path fill="#FFFFFF" d="M11.394,15.364c-0.8,0.35-1.59-0.2-1.37-1.09c0.08-0.06,0.16-0.11,0.24-0.16c0.05,0,0.09,0,0.14,0
			c0.06,0.51,0.41,1.13,1.01,1.12C11.403,15.273,11.403,15.324,11.394,15.364z"/>
		<path fill="#FFFFFF" d="M11.574,15.014c-0.27-0.23-0.71-0.7-0.74-1.14c0.29-0.82,1.14-0.931,1.76-1.42
			c0.64-0.51,1.12-1.22,1.74-1.76c0.57-0.51,1.17-0.97,1.76-1.47c0.25-0.01,0.41,0.04,0.56,0.13c0.03,0.06,0.05,0.13,0.08,0.19
			c-0.08,0.74-0.8,1.31-1.26,1.71c-0.25,0.31-0.49,0.62-0.74,0.93c-0.51,0.64-1.11,1.19-1.71,1.74
			C12.613,14.284,12.284,14.983,11.574,15.014z"/>
		<path fill="#FFFFFF" d="M14.434,6.523c1.25-0.64-0.05-2.56-1.25-2.57C11.293,4.773,13.443,7.034,14.434,6.523z M9.923,12.184
			c1.09,0.13,1.25-1.21,0.61-1.79c-0.05,0-0.11,0-0.16,0c-0.07,0.07-0.14,0.15-0.21,0.22c-0.01,0.25-0.02,0.51-0.03,0.77
			c-0.07,0.25-0.33,0.22-0.37,0.56C9.813,12.023,9.863,12.104,9.923,12.184z M4.474,3.983c-1.33,0.521-0.87,2.49,0.34,2.22
			C6.523,5.824,6.563,3.914,4.474,3.983z M4.074,7.594c-0.65,0.27-1.19,0.35-1.39,1.04c-0.33,1.13,0.56,2.25,1.65,2.03
			C6.213,10.284,6.113,7.644,4.074,7.594z M8.293,0.864c2.43-0.04,5.28,0.84,6.38,2.13c0.21,0.32,0.41,0.64,0.62,0.96
			c0.2,0.28,0.5,0.51,0.66,0.83c0.4,0.78,0.81,3.46-0.08,3.96c-1.26,0.29-3.79-0.76-4.62-0.14c-1.29,0.98,1.06,2.59,0.67,3.42
			c-1,2.14-5.94,1.14-7.59,0.3c-2.32-1.19-4.54-4.04-3.04-7.43c0.35-0.8,1.05-1.56,1.68-2.11c0.72-0.63,1.92-1.28,2.97-1.52
			c0.57-0.12,1.14-0.24,1.71-0.35C7.863,0.894,8.074,0.874,8.293,0.864z M7.144,2.354c-1.44,0.62-0.74,2.55,0.51,2.22
			C8.843,4.254,8.883,2.294,7.144,2.354z M9.733,3.184c-0.46,0.68,0.04,2.03,1.07,1.82c1.26-0.271,1.31-2.3-0.35-2.25
			C10.164,2.874,9.894,2.943,9.733,3.184z"/>
	</g>
	<g>
	</g>
</g>
</svg>
