<?xml version="1.0" encoding="utf-8"?>
<!-- Generator: Adobe Illustrator 15.0.0, SVG Export Plug-In . SVG Version: 6.00 Build 0)  -->
<!DOCTYPE svg PUBLIC "-//W3C//DTD SVG 1.1//EN" "http://www.w3.org/Graphics/SVG/1.1/DTD/svg11.dtd">
<svg version="1.1" id="图层_1" xmlns="http://www.w3.org/2000/svg" xmlns:xlink="http://www.w3.org/1999/xlink" x="0px" y="0px"
	 width="16.167px" height="14px" viewBox="0 0 16.167 14" enable-background="new 0 0 16.167 14" xml:space="preserve">
<g id="XMLID_1_">
	<path fill="#FFFFFF" d="M13.299,0.691c1.688,0.656,2.67,2.037,2.384,4.177c-0.065,0.486-0.24,0.983-0.488,1.41
		c-1.096,1.883-2.973,3.255-4.507,4.768c-0.602,0.595-1.195,1.192-1.827,1.758C8.642,13,8.41,13.425,8.096,13.5
		c0-0.046,0-0.093,0-0.139c0.404-1.594,0.758-3.122,1.235-4.646c0.213-0.68,0.406-1.394,0.627-2.106
		c0.104-0.334,0.253-0.675,0.296-1.062C9.44,5.434,8.64,5.7,7.904,5.808C7.898,5.796,7.893,5.785,7.887,5.773
		c0.151-1.148,0.302-2.298,0.453-3.446c0.127-0.11,0.255-0.22,0.383-0.331c0.646-0.581,1.31-0.974,2.175-1.357
		c0.25-0.046,0.499-0.093,0.749-0.139c0.421,0.047,1.06,0.04,1.601,0.191C13.264,0.691,13.282,0.691,13.299,0.691z"/>
	<path fill="#FFFFFF" d="M7.643,8.262c0.144,1.62,0.071,3.348,0.07,4.942c-0.743-0.719-1.485-1.438-2.228-2.158
		C3.771,9.364,1.661,7.848,0.647,5.547c-0.456-1.035-0.151-2.8,0.436-3.62c0.411-0.574,1.059-0.993,1.844-1.252
		C3.269,0.616,3.612,0.558,3.954,0.5C4.25,0.512,4.545,0.523,4.841,0.535c0.913,0.256,2.094,0.777,2.61,1.461
		c-0.325,0.783-0.65,1.566-0.975,2.35C6.21,5.088,5.943,5.831,5.676,6.574C5.448,7.162,5.135,7.754,5.016,8.418
		C5.474,8.407,5.932,8.396,6.39,8.384C6.808,8.343,7.225,8.302,7.643,8.262z"/>
</g>
</svg>
