<?xml version="1.0" encoding="utf-8"?>
<!-- Generator: Adobe Illustrator 15.0.0, SVG Export Plug-In . SVG Version: 6.00 Build 0)  -->
<!DOCTYPE svg PUBLIC "-//W3C//DTD SVG 1.1//EN" "http://www.w3.org/Graphics/SVG/1.1/DTD/svg11.dtd">
<svg version="1.1" id="图层_1" xmlns="http://www.w3.org/2000/svg" xmlns:xlink="http://www.w3.org/1999/xlink" x="0px" y="0px"
	 width="20.625px" height="18.625px" viewBox="0 0 20.625 18.625" enable-background="new 0 0 20.625 18.625" xml:space="preserve">
<path fill-rule="evenodd" clip-rule="evenodd" fill="#55616F" d="M8.9,0.267c1.842-0.03,2.918,0.556,4.018,1.234
	c0.289,0.178,0.431,0.549,0.702,0.727c0.708,0.463,1.714,0.634,2.372,1.137c0.65,0.497,1.219,1.195,1.598,1.961
	c0.064,0.218,0.129,0.436,0.193,0.653c0.209,0.302,0.629,0.38,0.92,0.605c0.214,0.166,0.515,0.535,0.678,0.75
	c1.103,1.463,1.153,2.883,0.194,4.478c-0.211,0.351-0.417,0.747-0.75,0.968c-1.39,0.921-2.117,0.991-4.381,0.992
	c-0.908,0-1.938,0.053-2.082-0.702c-0.043-0.227,0.076-0.368,0.145-0.484c0.46-0.78,1.14-0.289,2.082-0.411
	c0.702-0.016,1.404-0.032,2.106-0.049c0.948-0.195,1.636-0.946,1.864-1.888c0.273-1.132-0.417-2.123-1.089-2.493
	c-0.331-0.182-0.76-0.21-0.992-0.483c-0.152-0.179-0.108-0.45-0.169-0.727c-0.077-0.347-0.253-0.76-0.436-1.041
	c-0.338-0.518-1.052-1.08-1.694-1.283c-0.386-0.122-0.781-0.062-1.089-0.242c-0.356-0.208-0.448-0.572-0.726-0.848
	C11.792,2.56,10.24,1.612,8.973,1.816C7.844,1.998,6.611,2.399,6.021,3.099C5.932,3.261,5.843,3.422,5.754,3.583
	C5.525,3.85,5.211,4.182,5.077,4.527c-0.228,0.58-0.104,1.213-0.436,1.646C4.438,6.437,3.536,6.507,3.237,6.754
	C2.876,7.052,2.393,7.57,2.196,8.013c-0.419,0.942-0.068,2.567,0.363,3.146c0.581,0.779,1.621,1.19,3.025,0.992
	c0.412,0.008,0.823,0.016,1.234,0.024c0.779,0.114,1.392-0.175,1.622,0.532c0.166,0.509-0.234,0.832-0.533,0.968
	c-0.353,0.162-1.051,0.073-1.525,0.073c-1.175,0-2.582,0.176-3.437-0.267c-1.991-1.031-3.53-3.918-1.96-6.583
	c0.292-0.496,0.84-1.077,1.307-1.404C2.515,5.34,3.145,5.147,3.285,4.963c0.041-0.153,0.081-0.307,0.121-0.46
	c0.186-0.419,0.371-0.839,0.557-1.259c0.52-0.917,1.363-1.756,2.275-2.275c0.418-0.238,1.141-0.482,1.646-0.581
	C8.223,0.348,8.562,0.308,8.9,0.267z"/>
<path fill-rule="evenodd" clip-rule="evenodd" fill="#55616F" d="M10.256,7.069c0.981,0.029,1.95,1.489,2.566,2.033
	c0.198,0.175,0.673,0.523,0.532,0.992c-0.056,0.187-0.237,0.333-0.387,0.437c-0.883,0.606-1.222-0.623-1.791-0.775
	c-0.024,0.024-0.048,0.049-0.073,0.073c-0.106,0.713-0.109,1.834,0,2.565c-0.008,1.258-0.016,2.517-0.024,3.775
	c0,0.984,0.21,2.377-1.041,2.082c-0.72-0.17-0.532-1.33-0.532-2.203c-0.008-1.484-0.016-2.969-0.024-4.454
	c-0.07-0.537,0.189-1.259-0.024-1.646C8.863,9.746,8.518,11.24,7.594,10.53C7.23,10.25,7.308,9.618,7.569,9.296
	c0.242-0.218,0.484-0.437,0.726-0.654C8.965,7.929,9.266,7.498,10.256,7.069z"/>
</svg>
