<?xml version="1.0" encoding="utf-8"?>
<!-- Generator: Adobe Illustrator 15.0.0, SVG Export Plug-In . SVG Version: 6.00 Build 0)  -->
<!DOCTYPE svg PUBLIC "-//W3C//DTD SVG 1.1//EN" "http://www.w3.org/Graphics/SVG/1.1/DTD/svg11.dtd">
<svg version="1.1" id="图层_1" xmlns="http://www.w3.org/2000/svg" xmlns:xlink="http://www.w3.org/1999/xlink" x="0px" y="0px"
	 width="23.833px" height="24.647px" viewBox="0 0 23.833 24.647" enable-background="new 0 0 23.833 24.647" xml:space="preserve">
<g id="XMLID_13_">
	<g>
		<path fill="#FFFFFF" d="M15.463,19.93c0.15-0.11,0.31-0.21,0.47-0.32c0.08,0.01,0.16,0.03,0.24,0.04c0.06,0.07,0.13,0.13,0.2,0.2
			c0.01,0.34-0.05,0.52-0.16,0.71c-0.03,0.01-0.05,0.03-0.08,0.04c-0.37,0.01-0.51-0.06-0.71-0.2c0-0.02,0-0.05,0-0.08
			C15.433,20.19,15.443,20.06,15.463,19.93z"/>
		<path fill="#FFFFFF" d="M13.633,20.44c0.03-0.01,0.06-0.02,0.08-0.04c0.27,0,0.47,0.03,0.64,0.08c0.09,0.2,0.17,0.34,0.19,0.64
			c-0.06,0.09-0.13,0.18-0.19,0.27c-0.28,0.09-0.46,0.12-0.76,0.04C13.413,21.09,13.423,20.76,13.633,20.44z"/>
		<path fill="#FFFFFF" d="M12.403,21.27c-0.17,0.1-0.48,0.24-0.75,0.12c-0.08-0.06-0.16-0.13-0.24-0.19
			c0.02-0.16,0.03-0.319,0.04-0.479c0.11-0.11,0.22-0.21,0.32-0.32c0.15,0.02,0.29,0.03,0.44,0.04c0.08,0.07,0.16,0.13,0.23,0.2
			C12.433,20.85,12.423,21.06,12.403,21.27z"/>
		<path fill="#FFFFFF" d="M10.343,20.44c-0.29,0.42-0.73,0.31-1.06,0.04c0.01-0.21,0.02-0.42,0.03-0.63
			c0.14-0.12,0.27-0.24,0.4-0.36c0.09,0.021,0.19,0.03,0.28,0.04C10.243,19.72,10.423,20.05,10.343,20.44z"/>
		<path fill="#FFFFFF" d="M17.833,19.29c0,0.06,0,0.11,0,0.16c0.02,0,0.03,0,0.04,0C17.863,19.4,17.853,19.35,17.833,19.29z
			 M22.353,23.3c0.03-2.04,0.71-3.07-1.23-3.89c-0.01,0.03-0.03,0.06-0.04,0.08c-0.2,0.48-0.4,0.95-0.59,1.43
			c-0.43,0.83-0.85,1.66-1.27,2.49C20.263,23.37,21.313,23.33,22.353,23.3z M3.293,23.49c0.69-0.27,1.65-0.24,2.62-0.229
			c-0.02-0.04-0.03-0.08-0.04-0.12c-0.95-0.85-1.06-2.48-1.63-3.73c-0.27,0.29-0.55,0.58-0.83,0.87
			C3.003,20.97,2.833,22.79,3.293,23.49z M2.703,20.52c0.21-0.67,0.9-1.51,1.54-1.74c0.36-0.13,1.56,0.21,2.18,0.12
			c0.61-0.09,1.6-0.36,2.1-0.08c0,0.34,0,0.69,0,1.03c0.53,2.53,2.86,3.88,6.02,3.01c0.6-0.17,1.29-0.27,1.75-0.59
			c0.5-0.36,0.82-1.57,0.99-2.22c0.1-0.41,0.03-0.92,0.2-1.23c0.42-0.08,0.84-0.16,1.26-0.24c2.24-0.04,3.74,0.43,4.32,2.02
			c0.32,0.86,0.04,2.92-0.59,3.25c-1.38,0.07-2.75,0.13-4.12,0.2c-1.38,0.01-2.75,0.02-4.12,0.04c-2.57,0-5.24,0.109-7.53-0.24
			c-1.2,0.01-2.4,0.03-3.61,0.04C2.143,23.62,2.433,21.36,2.703,20.52z"/>
		<path fill="#FFFFFF" d="M10.663,13.79c0.58,0.11,3.46-0.15,3.69,0.23c-0.51,1.23-3.38,1.25-3.89,0
			C10.533,13.95,10.603,13.87,10.663,13.79z"/>
		<path fill="#FFFFFF" d="M17.483,16.36c-1.72,1.31-4.51,2.39-7.49,1.35c-0.97-0.34-1.47-0.96-2.14-1.59
			c0.03,0.14,0.05,0.27,0.08,0.4c-0.16-0.18-0.32-0.37-0.48-0.55c-1.27,0.68-2.4,1.34-4.39,1.34c-0.64,0-1.8,0.07-2.06-0.31
			c-0.02-0.07-0.03-0.14-0.04-0.2c0.73-0.76,1.06-1.92,1.54-2.93c0.93-1.96,1.84-4.13,2.73-6.1c0.6-1.3,0.89-2.5,1.67-3.57
			c0.84-1.16,2-2.26,3.41-2.85c0.47-0.15,0.95-0.29,1.42-0.44c1.44-0.04,3.17-0.14,3.49,0.95c2.03-1.53,3.32,0.26,4.24,1.55
			c1.56,2.21,1.93,4.14,2.49,7.45c0.03,0.4,0.06,0.81,0.08,1.22c0.08,0.41,0.45,0.64,0.36,1.11c0,0.02,0,0.03,0,0.04
			c-0.26,0.95-0.93,1.84-1.59,2.42c-0.54,0.48-2.67,2.41-3.64,1.9c0.07-0.18,0.13-0.37,0.2-0.55c-0.06,0-0.11,0-0.16,0
			C17.293,16.78,17.383,16.57,17.483,16.36z M10.663,17.31c2.76,0.7,5.12-0.27,6.54-1.5c0.17-0.15,0.34-0.29,0.51-0.44
			c0.25-0.62-0.23-2.42-0.35-3.01c-0.55-2.59-1.71-6.66-3.96-7.37c-0.97,0.82-2.36,1.18-3.13,2.18c-1.26,1.61-1.8,3.33-2.26,5.82
			c-0.1,0.73-0.19,1.46-0.28,2.18C8.103,16.14,9.553,17.03,10.663,17.31z"/>
	</g>
	<g>
	</g>
</g>
</svg>
